<?xml version="1.0" encoding="UTF-8"?>
<svg id="Layer_1" data-name="Layer 1" xmlns="http://www.w3.org/2000/svg" xmlns:xlink="http://www.w3.org/1999/xlink" viewBox="0 0 1190.55 841.89">
  <defs>
    <style>
      .cls-1 {
        fill: #8988f2;
      }

      .cls-2 {
        fill: #8e4ae4;
      }

      .cls-3 {
        fill: #d1daff;
      }

      .cls-4 {
        fill: #87a5f9;
      }

      .cls-5 {
        fill: #9120da;
      }

      .cls-6 {
        fill: #d6dcff;
      }

      .cls-7 {
        fill: #8983f1;
      }

      .cls-8 {
        fill: #85b5fc;
      }

      .cls-9 {
        fill: #8895f5;
      }

      .cls-10 {
        fill: #b2ccfe;
      }

      .cls-11 {
        fill: #8c62e9;
      }

      .cls-12 {
        fill: #8a78ee;
      }

      .cls-13 {
        fill: #86abfa;
      }

      .cls-14 {
        fill: #9401d3;
      }

      .cls-15 {
        fill: #879ef7;
      }

      .cls-16 {
        fill: #8f3ae0;
      }

      .cls-17 {
        fill: #8dbbfd;
      }

      .cls-18 {
        fill: #8a7bef;
      }

      .cls-19 {
        fill: #9403d4;
      }

      .cls-20 {
        fill: #8c5ee8;
      }

      .cls-21 {
        fill: #8b71ed;
      }

      .cls-22 {
        fill: #8e47e3;
      }

      .cls-23 {
        fill: #8d52e6;
      }

      .cls-24 {
        fill: #c1d3fe;
      }

      .cls-25 {
        fill: #9311d7;
      }

      .cls-26 {
        fill: #9219d9;
      }

      .cls-27 {
        fill: #aecafe;
      }

      .cls-28 {
        fill: #8d56e7;
      }

      .cls-29 {
        fill: #8c66ea;
      }

      .cls-30 {
        fill: #8894f5;
      }

      .cls-31 {
        fill: #86aefb;
      }

      .cls-32 {
        fill: #86acfa;
      }

      .cls-33 {
        fill: #b7cefe;
      }

      .cls-34 {
        fill: #bfd2fe;
      }

      .cls-35 {
        fill: #879df7;
      }

      .cls-36 {
        fill: #87b9fd;
      }

      .cls-37 {
        fill: #8c61e9;
      }

      .cls-38 {
        fill: #86b2fc;
      }

      .cls-39 {
        fill: #a7c7fe;
      }

      .cls-40 {
        fill: #8a7cef;
      }

      .cls-41 {
        fill: #8f40e2;
      }

      .cls-42 {
        fill: #8a80f0;
      }

      .cls-43 {
        fill: #921cd9;
      }

      .cls-44 {
        fill: #86b8fd;
      }

      .cls-45 {
        fill: #879ff7;
      }

      .cls-46 {
        fill: #930fd6;
      }

      .cls-47 {
        fill: #8d55e6;
      }

      .cls-48 {
        fill: #9400d3;
      }

      .cls-49 {
        fill: #cbd7ff;
      }

      .cls-50 {
        fill: #8e4ee5;
      }

      .cls-51 {
        fill: #8b74ed;
      }

      .cls-52 {
        fill: #bed1fe;
      }

      .cls-53 {
        fill: #88b9fd;
      }

      .cls-54 {
        fill: #c4d4fe;
      }

      .cls-55 {
        fill: #dddfff;
      }

      .cls-56 {
        fill: #8b68eb;
      }

      .cls-57 {
        fill: #85b7fd;
      }

      .cls-58 {
        fill: #c6d5fe;
      }

      .cls-59 {
        fill: #8d5ae8;
      }

      .cls-60 {
        fill: #9124db;
      }

      .cls-61 {
        fill: #8c63ea;
      }

      .cls-62 {
        fill: #8e49e4;
      }

      .cls-63 {
        fill: #8f41e2;
      }

      .cls-64 {
        fill: #86aafa;
      }

      .cls-65 {
        fill: #8e48e3;
      }

      .cls-66 {
        fill: #96c0fd;
      }

      .cls-67 {
        fill: #902fde;
      }

      .cls-68 {
        fill: #8b6aeb;
      }

      .cls-69 {
        fill: #9fc4fe;
      }

      .cls-70 {
        fill: #8893f5;
      }

      .cls-71 {
        fill: #9037df;
      }

      .cls-72 {
        fill: #930ad5;
      }

      .cls-73 {
        fill: #86b1fb;
      }

      .cls-74 {
        fill: #8984f1;
      }

      .cls-75 {
        fill: #8898f6;
      }

      .cls-76 {
        fill: #8c60e9;
      }

      .cls-77 {
        fill: #8cbbfd;
      }

      .cls-78 {
        fill: #8987f2;
      }

      .cls-79 {
        fill: #9214d8;
      }

      .cls-80 {
        fill: #85b8fd;
      }

      .cls-81 {
        fill: #9217d8;
      }

      .cls-82 {
        fill: #85b6fd;
      }

      .cls-83 {
        fill: #ced8ff;
      }

      .cls-84 {
        fill: #8e4fe5;
      }

      .cls-85 {
        fill: #abc9fe;
      }

      .cls-86 {
        fill: #b1ccfe;
      }

      .cls-87 {
        fill: #8799f6;
      }

      .cls-88 {
        fill: #8b70ed;
      }

      .cls-89 {
        fill: #dee0ff;
      }

      .cls-90 {
        fill: #a2c5fe;
      }

      .cls-91 {
        fill: #8a76ee;
      }

      .cls-92 {
        fill: #91bdfd;
      }

      .cls-93 {
        fill: #9306d4;
      }

      .cls-94 {
        fill: #898df3;
      }

      .cls-95 {
        fill: none;
      }

      .cls-96 {
        fill: #9034df;
      }

      .cls-97 {
        fill: #8a79ef;
      }

      .cls-98 {
        fill: #a1c4fe;
      }

      .cls-99 {
        fill: #8c67eb;
      }

      .cls-100 {
        fill: #8a77ee;
      }

      .cls-101 {
        fill: #9129dc;
      }

      .cls-102 {
        fill: #a4c6fe;
      }

      .cls-103 {
        fill: #8f38e0;
      }

      .cls-104 {
        fill: #cad7ff;
      }

      .cls-105 {
        fill: #8892f4;
      }

      .cls-106 {
        fill: #9405d4;
      }

      .cls-107 {
        fill: #adcafe;
      }

      .cls-108 {
        fill: #b8cffe;
      }

      .cls-109 {
        fill: #8d5be8;
      }

      .cls-110 {
        fill: #86a7f9;
      }

      .cls-111 {
        fill: #d8ddff;
      }

      .cls-112 {
        fill: #8f3be1;
      }

      .cls-113 {
        fill: #8a7ff0;
      }

      .cls-114 {
        fill: #912bdd;
      }

      .cls-115 {
        clip-path: url(#clippath-1);
      }

      .cls-116 {
        fill: #a9c8fe;
      }

      .cls-117 {
        fill: #93befd;
      }

      .cls-118 {
        fill: #9ac1fd;
      }

      .cls-119 {
        fill: #b3cdfe;
      }

      .cls-120 {
        fill: #8d59e7;
      }

      .cls-121 {
        fill: #b0cbfe;
      }

      .cls-122 {
        fill: #902ddd;
      }

      .cls-123 {
        fill: #a8c8fe;
      }

      .cls-124 {
        fill: #921bd9;
      }

      .cls-125 {
        fill: #bcd0fe;
      }

      .cls-126 {
        fill: #87a1f8;
      }

      .cls-127 {
        fill: #8d51e6;
      }

      .cls-128 {
        fill: #95bffd;
      }

      .cls-129 {
        fill: #879bf6;
      }

      .cls-130 {
        fill: #8b72ed;
      }

      .cls-131 {
        fill: #e0e1ff;
      }

      .cls-132 {
        fill: #902ede;
      }

      .cls-133 {
        fill: #8b6cec;
      }

      .cls-134 {
        fill: #879cf7;
      }

      .cls-135 {
        fill: #8d50e5;
      }

      .cls-136 {
        fill: #aac8fe;
      }

      .cls-137 {
        fill: #dcdfff;
      }

      .cls-138 {
        fill: #85b3fc;
      }

      .cls-139 {
        fill: #8897f5;
      }

      .cls-140 {
        fill: #86adfb;
      }

      .cls-141 {
        fill: #d7ddff;
      }

      .cls-142 {
        fill: #8981f0;
      }

      .cls-143 {
        fill: #85b4fc;
      }

      .cls-144 {
        fill: #89bafd;
      }

      .cls-145 {
        fill: #cdd8ff;
      }

      .cls-146 {
        fill: #8f3ee1;
      }

      .cls-147 {
        fill: #9122db;
      }

      .cls-148 {
        fill: #8891f4;
      }

      .cls-149 {
        fill: #921dda;
      }

      .cls-150 {
        fill: #8fbdfd;
      }

      .cls-151 {
        fill: #9121da;
      }

      .cls-152 {
        fill: #921eda;
      }

      .cls-153 {
        fill: #9032de;
      }

      .cls-154 {
        fill: #d2daff;
      }

      .cls-155 {
        fill: #930dd6;
      }

      .cls-156 {
        fill: #b6cefe;
      }

      .cls-157 {
        fill: #8d57e7;
      }

      .cls-158 {
        fill: #8d54e6;
      }

      .cls-159 {
        fill: #94bffd;
      }

      .cls-160 {
        fill: #dfe0ff;
      }

      .cls-161 {
        fill: #930ed6;
      }

      .cls-162 {
        fill: #8f3fe1;
      }

      .cls-163 {
        fill: #90bdfd;
      }

      .cls-164 {
        fill: #9308d5;
      }

      .cls-165 {
        fill: #9213d7;
      }

      .cls-166 {
        fill: #898af2;
      }

      .cls-167 {
        fill: #8a7aef;
      }

      .cls-168 {
        fill: #9bc2fd;
      }

      .cls-169 {
        fill: #9031de;
      }

      .cls-170 {
        fill: #902cdd;
      }

      .cls-171 {
        fill: #9309d5;
      }

      .cls-172 {
        fill: #acc9fe;
      }

      .cls-173 {
        fill: #8890f4;
      }

      .cls-174 {
        fill: #8bbbfd;
      }

      .cls-175 {
        fill: #86a6f9;
      }

      .cls-176 {
        fill: #8896f5;
      }

      .cls-177 {
        fill: #8a7ef0;
      }

      .cls-178 {
        fill: #87a3f8;
      }

      .cls-179 {
        fill: #99c1fd;
      }

      .cls-180 {
        fill: #8b6eec;
      }

      .cls-181 {
        fill: #8982f1;
      }

      .cls-182 {
        fill: #8f39e0;
      }

      .cls-183 {
        fill: #879af6;
      }

      .cls-184 {
        fill: #8abafd;
      }

      .cls-185 {
        fill: #930bd6;
      }

      .cls-186 {
        fill: #bbd0fe;
      }

      .cls-187 {
        fill: #9312d7;
      }

      .cls-188 {
        fill: #d4dbff;
      }

      .cls-189 {
        fill: #d9deff;
      }

      .cls-190 {
        fill: #b9cffe;
      }

      .cls-191 {
        fill: #c3d4fe;
      }

      .cls-192 {
        fill: #fafafa;
      }

      .cls-193 {
        fill: #898cf3;
      }

      .cls-194 {
        fill: #87a0f8;
      }

      .cls-195 {
        fill: #85b2fc;
      }

      .cls-196 {
        fill: #87a4f8;
      }

      .cls-197 {
        fill: #d3dbff;
      }

      .cls-198 {
        fill: #8f3de1;
      }

      .cls-199 {
        fill: #98c0fd;
      }

      .cls-200 {
        fill: #888ef3;
      }

      .cls-201 {
        fill: #9216d8;
      }

      .cls-202 {
        fill: #8e4ce4;
      }

      .cls-203 {
        fill: #888ff4;
      }

      .cls-204 {
        fill: #9035df;
      }

      .cls-205 {
        fill: #c2d3fe;
      }

      .cls-206 {
        fill: #a0c4fe;
      }

      .cls-207 {
        fill: #a6c7fe;
      }

      .cls-208 {
        fill: #9128dc;
      }

      .cls-209 {
        fill: #8f42e2;
      }

      .cls-210 {
        fill: #8a75ee;
      }

      .cls-211 {
        fill: #86a8f9;
      }

      .cls-212 {
        fill: #85b6fc;
      }

      .cls-213 {
        fill: #8899f6;
      }

      .cls-214 {
        fill: #9033df;
      }

      .cls-215 {
        fill: #9127dc;
      }

      .cls-216 {
        fill: #8989f2;
      }

      .cls-217 {
        fill: #9218d8;
      }

      .cls-218 {
        fill: #a5c6fe;
      }

      .cls-219 {
        fill: #c0d2fe;
      }

      .cls-220 {
        fill: #8d58e7;
      }

      .cls-221 {
        fill: #9cc2fd;
      }

      .cls-222 {
        fill: #97c0fd;
      }

      .cls-223 {
        fill: #8b73ed;
      }

      .cls-224 {
        fill: #86a9fa;
      }

      .cls-225 {
        fill: #8c64ea;
      }

      .cls-226 {
        fill: #b5cefe;
      }

      .cls-227 {
        fill: #8c65ea;
      }

      .cls-228 {
        fill: #8e46e3;
      }

      .cls-229 {
        fill: #9404d4;
      }

      .cls-230 {
        fill: #9126dc;
      }

      .cls-231 {
        fill: #898bf3;
      }

      .cls-232 {
        fill: #8a7df0;
      }

      .cls-233 {
        fill: #bdd1fe;
      }

      .cls-234 {
        fill: #8986f2;
      }

      .cls-235 {
        fill: #d0d9ff;
      }

      .cls-236 {
        fill: #8e45e3;
      }

      .cls-237 {
        fill: #8ebcfd;
      }

      .cls-238 {
        fill: #8b6beb;
      }

      .cls-239 {
        fill: #92befd;
      }

      .cls-240 {
        fill: #8b6dec;
      }

      .cls-241 {
        fill: #b4cdfe;
      }

      .cls-242 {
        clip-path: url(#clippath);
      }

      .cls-243 {
        fill: #8b6fec;
      }

      .cls-244 {
        fill: #8e44e2;
      }

      .cls-245 {
        fill: #86affb;
      }

      .cls-246 {
        fill: #cfd9ff;
      }

      .cls-247 {
        fill: #c8d6fe;
      }

      .cls-248 {
        fill: #8c5fe9;
      }

      .cls-249 {
        fill: #86b0fb;
      }

      .cls-250 {
        fill: #9dc3fe;
      }

      .cls-251 {
        fill: #c7d5fe;
      }

      .cls-252 {
        fill: #8985f1;
      }

      .cls-253 {
        fill: #8e4de5;
      }

      .cls-254 {
        fill: #c5d5fe;
      }

      .cls-255 {
        fill: #a3c5fe;
      }

      .cls-256 {
        fill: #8c5de8;
      }

      .cls-257 {
        fill: #afcbfe;
      }

      .cls-258 {
        fill: #9ec3fe;
      }

      .cls-259 {
        fill: #87a2f8;
      }

      .cls-260 {
        fill: #c9d6fe;
      }

      .cls-261 {
        fill: #9123db;
      }

      .cls-262 {
        fill: #dadeff;
      }

      .cls-263 {
        fill: #d5dcff;
      }
    </style>
    <clipPath id="clippath">
      <path class="cls-95" d="M653.09,492.36c-2.68,3.35-3.49,7.82-2.19,11.91,16.17,50.58,57.91,84.77,116.75,84.77,97.09,0,167.11-81.22,192.32-175.51,10.76-41.09,9.34-73.75,9.34-73.75,0-67.22-43.02-135.37-122.3-135.37-67.69,0-117,26.08-250.51,183.6-130.29,153.72-189.47,125.85-189.47,125.85-36.95-14.21-46.69-78.28-21.77-143.1,24.93-64.83,75.08-105.87,112.03-91.66,32.06,12.33,43.64,62.21,29.85,117.55-1.57,6.3,6.26,10.58,10.76,5.89l72.62-75.8c2.75-2.87,3.95-6.84,3.39-10.77-8.4-58.6-48.18-111.56-120.61-111.56-117.63,0-203.52,120.43-203.52,250.2,0,76.55,47.61,134.44,124.17,134.44,0,0,108.94,7.59,242.18-158.79,131.24-163.87,165.78-157.66,194.86-151.16,38.63,8.64,46.69,78.28,21.77,143.1-24.93,64.83-75.08,105.87-112.03,91.66-27.49-10.57-39.92-48.74-34.22-94.29.79-6.33-7.27-9.69-11.26-4.71l-62.15,77.51Z"/>
    </clipPath>
    <clipPath id="clippath-1">
      <path class="cls-95" d="M642.7,237.52l34.03,91.98c3.44,9.31,10.78,16.64,20.09,20.09l91.98,34.03c12.19,4.51,12.19,21.75,0,26.26l-91.98,34.03c-9.31,3.44-16.64,10.78-20.09,20.09l-34.03,91.98c-4.51,12.19-21.75,12.19-26.26,0l-34.03-91.98c-3.44-9.31-10.78-16.64-20.09-20.09l-91.98-34.03c-12.19-4.51-12.19-21.75,0-26.26l91.98-34.03c9.31-3.44,16.64-10.78,20.09-20.09l34.03-91.98c4.51-12.19,21.75-12.19,26.26,0Z"/>
    </clipPath>
  </defs>
  <g class="cls-242">
    <rect class="cls-80" x="289.78" y="204.4" width="680.95" height="392.23"/>
    <path class="cls-80" d="M960.69,396.75c0,45.72-9.27,89.27-26.02,128.89-8.38,19.81-18.63,38.63-30.53,56.25-2.98,4.4-6.05,8.73-9.23,12.98-1.59,2.12-3.2,4.23-4.84,6.31v-3.55H369.08v3.55c-1.64-2.08-3.25-4.19-4.84-6.31-3.18-4.25-6.26-8.58-9.23-12.98-11.9-17.62-22.15-36.44-30.53-56.25-16.76-39.61-26.02-83.17-26.02-128.89s9.27-89.27,26.02-128.89c8.38-19.81,18.63-38.63,30.53-56.25,2.98-4.4,6.05-8.73,9.23-12.98v4.77h530.68v-4.77c3.18,4.25,6.26,8.58,9.23,12.98,11.9,17.62,22.15,36.44,30.53,56.25,16.76,39.61,26.02,83.17,26.02,128.89Z"/>
    <path class="cls-80" d="M958.89,396.75c0,45.47-9.22,88.79-25.88,128.19-8.33,19.7-18.53,38.42-30.36,55.94-2.96,4.38-6.02,8.68-9.18,12.91-1.58,2.11-3.19,4.21-4.82,6.28v-2.44H370.49v2.44c-1.63-2.07-3.23-4.17-4.82-6.28-3.16-4.23-6.22-8.53-9.18-12.91-11.84-17.52-22.03-36.24-30.36-55.94-16.66-39.4-25.88-82.72-25.88-128.19s9.22-88.79,25.88-128.19c8.33-19.7,18.53-38.42,30.36-55.94,2.96-4.38,6.02-8.68,9.18-12.91v3.69h527.79v-3.69c3.16,4.23,6.22,8.53,9.18,12.91,11.84,17.52,22.03,36.24,30.36,55.94,16.66,39.4,25.88,82.72,25.88,128.19Z"/>
    <path class="cls-57" d="M957.09,396.75c0,45.22-9.16,88.3-25.74,127.49-8.29,19.59-18.43,38.21-30.2,55.63-2.94,4.36-5.99,8.64-9.13,12.84-1.57,2.1-3.17,4.18-4.79,6.25v-1.32H371.91v1.32c-1.62-2.06-3.22-4.14-4.79-6.25-3.14-4.2-6.19-8.48-9.13-12.84-11.77-17.42-21.91-36.04-30.2-55.63-16.57-39.18-25.74-82.26-25.74-127.49s9.16-88.3,25.74-127.49c8.29-19.59,18.43-38.21,30.2-55.63,2.94-4.36,5.99-8.64,9.13-12.84v2.62h524.91v-2.62c3.14,4.2,6.19,8.48,9.13,12.84,11.77,17.42,21.91,36.04,30.2,55.63,16.57,39.18,25.74,82.26,25.74,127.49Z"/>
    <path class="cls-57" d="M955.3,396.75c0,44.97-9.11,87.82-25.6,126.79-8.24,19.48-18.32,38-30.03,55.33-5.85,8.66-12.11,17.03-18.75,25.08v-6.31h-502.68v6.31c-6.64-8.04-12.9-16.41-18.75-25.08-11.71-17.33-21.79-35.84-30.03-55.33-16.48-38.97-25.6-81.81-25.6-126.79s9.11-87.82,25.6-126.79c8.24-19.48,18.32-38,30.03-55.33,2.93-4.33,5.95-8.59,9.08-12.77v1.54h522.02v-1.54c3.13,4.18,6.15,8.44,9.08,12.77,11.71,17.33,21.79,35.84,30.03,55.33,16.48,38.97,25.6,81.81,25.6,126.79Z"/>
    <path class="cls-57" d="M953.5,396.75c0,44.72-9.06,87.33-25.46,126.08-8.2,19.38-18.22,37.79-29.87,55.02-5.82,8.62-12.05,16.94-18.65,24.94v-5.16h-499.91v5.16c-6.6-8-12.83-16.32-18.65-24.94-11.64-17.23-21.67-35.65-29.87-55.02-16.39-38.75-25.46-81.36-25.46-126.08s9.06-87.33,25.46-126.08c8.2-19.38,18.22-37.79,29.87-55.02,2.91-4.31,5.92-8.54,9.03-12.7v.46h519.14v-.46c3.11,4.16,6.12,8.39,9.03,12.7,11.64,17.23,21.67,35.65,29.87,55.02,16.39,38.75,25.46,81.36,25.46,126.08Z"/>
    <path class="cls-82" d="M951.7,396.75c0,44.48-9.01,86.85-25.31,125.38-8.15,19.27-18.12,37.58-29.7,54.72-5.79,8.57-11.98,16.84-18.54,24.8v-4.02h-497.13v4.02c-6.56-7.95-12.75-16.23-18.54-24.8-11.58-17.14-21.55-35.45-29.7-54.72-16.3-38.54-25.31-80.91-25.31-125.38s9.01-86.85,25.31-125.38c8.15-19.27,18.12-37.58,29.7-54.72,2.89-4.28,5.89-8.5,8.98-12.63,1.55-2.07,3.12-4.11,4.71-6.14v5.53h506.84v-5.53c1.59,2.03,3.16,4.08,4.71,6.14,3.09,4.13,6.09,8.35,8.98,12.63,11.58,17.14,21.55,35.45,29.7,54.72,16.3,38.54,25.31,80.91,25.31,125.38Z"/>
    <path class="cls-212" d="M949.9,396.75c0,44.23-8.96,86.36-25.17,124.68-8.1,19.16-18.02,37.37-29.53,54.41-5.76,8.52-11.91,16.75-18.44,24.66v-2.87h-494.35v2.87c-6.53-7.91-12.68-16.14-18.44-24.66-11.51-17.04-21.43-35.25-29.53-54.41-16.21-38.32-25.17-80.46-25.17-124.68s8.96-86.36,25.17-124.68c8.1-19.16,18.02-37.37,29.53-54.41,2.88-4.26,5.86-8.45,8.93-12.56,1.54-2.06,3.1-4.09,4.68-6.11v4.42h504v-4.42c1.59,2.02,3.15,4.05,4.68,6.11,3.07,4.11,6.05,8.3,8.93,12.56,11.51,17.04,21.43,35.25,29.53,54.41,16.21,38.32,25.17,80.46,25.17,124.68Z"/>
    <path class="cls-8" d="M948.1,396.75c0,43.98-8.91,85.88-25.03,123.98-8.06,19.05-17.92,37.16-29.37,54.11-5.72,8.47-11.85,16.66-18.34,24.52v-1.73h-491.58v1.73c-6.49-7.87-12.61-16.05-18.34-24.52-11.45-16.95-21.31-35.05-29.37-54.11-16.12-38.11-25.03-80-25.03-123.98s8.91-85.88,25.03-123.98c8.06-19.05,17.92-37.16,29.37-54.11,2.86-4.24,5.82-8.4,8.88-12.49,1.53-2.04,3.08-4.07,4.66-6.07v3.31h501.17v-3.31c1.58,2.01,3.13,4.03,4.66,6.07,3.06,4.09,6.02,8.25,8.88,12.49,11.45,16.95,21.31,35.05,29.37,54.11,16.12,38.11,25.03,80,25.03,123.98Z"/>
    <path class="cls-8" d="M946.3,396.75c0,43.73-8.86,85.39-24.89,123.28-8.01,18.95-17.82,36.95-29.2,53.8-5.69,8.42-11.78,16.56-18.23,24.38v-.58h-488.8v.58c-6.45-7.82-12.54-15.96-18.23-24.38-11.38-16.85-21.19-34.85-29.2-53.8-16.03-37.89-24.89-79.55-24.89-123.28s8.86-85.39,24.89-123.28c8.01-18.95,17.82-36.95,29.2-53.8,2.85-4.21,5.79-8.35,8.83-12.42,1.52-2.03,3.06-4.05,4.63-6.04v2.2h498.34v-2.2c1.57,1.99,3.11,4.01,4.63,6.04,3.04,4.06,5.98,8.21,8.83,12.42,11.38,16.85,21.19,34.85,29.2,53.8,16.03,37.89,24.89,79.55,24.89,123.28Z"/>
    <path class="cls-143" d="M944.5,396.75c0,43.48-8.81,84.91-24.75,122.58-7.97,18.84-17.72,36.74-29.04,53.49-5.66,8.38-11.71,16.47-18.13,24.24-1.6,1.94-3.23,3.87-4.88,5.77v-5.21h-476.26v5.21c-1.65-1.9-3.28-3.83-4.88-5.77-6.42-7.78-12.47-15.87-18.13-24.24-11.32-16.75-21.07-34.66-29.04-53.49-15.94-37.68-24.75-79.1-24.75-122.58s8.81-84.91,24.75-122.58c7.97-18.84,17.72-36.74,29.04-53.49,5.66-8.38,11.71-16.47,18.13-24.24v6.98h486.02v-6.98c6.42,7.78,12.47,15.87,18.13,24.24,11.32,16.75,21.07,34.66,29.04,53.49,15.94,37.68,24.75,79.1,24.75,122.58Z"/>
    <path class="cls-143" d="M942.7,396.75c0,43.23-8.76,84.42-24.61,121.88-7.92,18.73-17.62,36.53-28.87,53.19-5.63,8.33-11.64,16.37-18.03,24.11-1.6,1.93-3.21,3.85-4.85,5.74v-4.03h-473.54v4.03c-1.64-1.89-3.26-3.81-4.85-5.74-6.38-7.73-12.4-15.78-18.03-24.11-11.25-16.66-20.95-34.46-28.87-53.19-15.84-37.46-24.61-78.65-24.61-121.88s8.76-84.42,24.61-121.88c7.92-18.73,17.62-36.53,28.87-53.19,5.63-8.33,11.64-16.37,18.03-24.11v5.83h483.24v-5.83c6.38,7.73,12.4,15.78,18.03,24.11,11.25,16.66,20.95,34.46,28.87,53.19,15.84,37.46,24.61,78.65,24.61,121.88Z"/>
    <path class="cls-138" d="M940.9,396.75c0,42.98-8.71,83.94-24.47,121.18-7.88,18.62-17.51,36.32-28.7,52.88-5.59,8.28-11.58,16.28-17.92,23.97-1.59,1.92-3.19,3.82-4.83,5.71v-2.86h-470.81v2.86c-1.63-1.88-3.24-3.79-4.83-5.71-6.34-7.69-12.33-15.69-17.92-23.97-11.19-16.56-20.83-34.26-28.7-52.88-15.75-37.25-24.47-78.2-24.47-121.18s8.71-83.94,24.47-121.18c7.88-18.62,17.51-36.32,28.7-52.88,5.59-8.28,11.58-16.28,17.92-23.97v4.69h480.47v-4.69c6.34,7.69,12.33,15.69,17.92,23.97,11.19,16.56,20.83,34.26,28.7,52.88,15.75,37.25,24.47,78.2,24.47,121.18Z"/>
    <path class="cls-195" d="M939.1,396.75c0,42.74-8.66,83.45-24.32,120.48-7.83,18.52-17.41,36.11-28.54,52.58-5.56,8.23-11.51,16.18-17.82,23.83-1.58,1.91-3.18,3.8-4.8,5.67v-1.68h-468.09v1.68c-1.62-1.87-3.22-3.76-4.8-5.67-6.31-7.64-12.26-15.59-17.82-23.83-11.12-16.47-20.71-34.06-28.54-52.58-15.66-37.03-24.32-77.74-24.32-120.48s8.66-83.45,24.32-120.48c7.83-18.52,17.41-36.11,28.54-52.58,5.56-8.23,11.51-16.18,17.82-23.83v3.54h477.69v-3.54c6.31,7.64,12.26,15.59,17.82,23.83,11.12,16.47,20.71,34.06,28.54,52.58,15.66,37.03,24.32,77.74,24.32,120.48Z"/>
    <path class="cls-38" d="M937.3,396.75c0,42.49-8.61,82.96-24.18,119.78-7.79,18.41-17.31,35.9-28.37,52.27-5.53,8.19-11.44,16.09-17.71,23.69-3.14,3.8-6.36,7.52-9.67,11.17v-6.02h-455.57v6.02c-3.31-3.64-6.54-7.37-9.67-11.17-6.27-7.6-12.18-15.5-17.71-23.69-11.06-16.37-20.59-33.86-28.37-52.27-15.57-36.82-24.18-77.29-24.18-119.78s8.61-82.96,24.18-119.78c7.79-18.41,17.31-35.9,28.37-52.27,5.53-8.19,11.44-16.09,17.71-23.69v2.4h474.91v-2.4c6.27,7.6,12.18,15.5,17.71,23.69,11.06,16.37,20.59,33.86,28.37,52.27,15.57,36.82,24.18,77.29,24.18,119.78Z"/>
    <path class="cls-73" d="M935.5,396.75c0,42.24-8.56,82.48-24.04,119.08-7.74,18.3-17.21,35.69-28.21,51.97-5.5,8.14-11.38,16-17.61,23.55-3.12,3.78-6.32,7.48-9.62,11.1v-4.81h-452.9v4.81c-3.29-3.62-6.5-7.32-9.62-11.1-6.23-7.55-12.11-15.41-17.61-23.55-11-16.28-20.47-33.67-28.21-51.97-15.48-36.6-24.04-76.84-24.04-119.08s8.56-82.48,24.04-119.08c7.74-18.3,17.21-35.69,28.21-51.97,5.5-8.14,11.38-16,17.61-23.55v1.25h472.13v-1.25c6.23,7.55,12.11,15.41,17.61,23.55,11,16.28,20.47,33.67,28.21,51.97,15.48,36.6,24.04,76.84,24.04,119.08Z"/>
    <path class="cls-73" d="M933.7,396.75c0,41.99-8.51,81.99-23.9,118.38-7.69,18.19-17.11,35.48-28.04,51.66-5.47,8.09-11.31,15.9-17.51,23.41-3.1,3.76-6.29,7.43-9.56,11.04v-3.6h-450.24v3.6c-3.27-3.6-6.46-7.28-9.56-11.04-6.2-7.51-12.04-15.32-17.51-23.41-10.93-16.18-20.35-33.47-28.04-51.66-15.39-36.39-23.9-76.39-23.9-118.38s8.51-81.99,23.9-118.38c7.69-18.19,17.11-35.48,28.04-51.66,5.47-8.09,11.31-15.9,17.51-23.41v.11h469.36v-.11c6.2,7.51,12.04,15.32,17.51,23.41,10.93,16.18,20.35,33.47,28.04,51.66,15.39,36.39,23.9,76.39,23.9,118.38Z"/>
    <path class="cls-249" d="M931.9,396.75c0,41.74-8.46,81.51-23.76,117.68-7.65,18.08-17.01,35.27-27.87,51.35-5.43,8.04-11.24,15.81-17.4,23.27-3.08,3.73-6.25,7.39-9.5,10.97v-2.39h-447.58v2.39c-3.25-3.58-6.42-7.24-9.5-10.97-6.16-7.47-11.97-15.23-17.4-23.27-10.87-16.08-20.23-33.27-27.87-51.35-15.3-36.17-23.76-75.94-23.76-117.68s8.46-81.51,23.76-117.68c7.65-18.08,17.01-35.27,27.87-51.35,5.43-8.04,11.24-15.81,17.4-23.27,1.54-1.87,3.1-3.71,4.69-5.54v4.51h457.21v-4.51c1.58,1.83,3.15,3.68,4.69,5.54,6.16,7.47,11.97,15.23,17.4,23.27,10.87,16.08,20.23,33.27,27.87,51.35,15.3,36.17,23.76,75.94,23.76,117.68Z"/>
    <path class="cls-245" d="M930.1,396.75c0,41.49-8.41,81.02-23.62,116.98-7.6,17.98-16.91,35.06-27.71,51.05-5.4,7.99-11.18,15.71-17.3,23.14-3.06,3.71-6.21,7.35-9.45,10.9v-1.18h-444.91v1.18c-3.23-3.56-6.38-7.19-9.45-10.9-6.12-7.42-11.9-15.14-17.3-23.14-10.8-15.99-20.1-33.07-27.71-51.05-15.21-35.95-23.62-75.48-23.62-116.98s8.41-81.02,23.62-116.98c7.6-17.98,16.91-35.06,27.71-51.05,5.4-7.99,11.18-15.71,17.3-23.14,1.53-1.86,3.08-3.69,4.66-5.51v3.33h454.49v-3.33c1.57,1.82,3.13,3.65,4.66,5.51,6.12,7.42,11.9,15.14,17.3,23.14,10.8,15.99,20.1,33.07,27.71,51.05,15.21,35.95,23.62,75.48,23.62,116.98Z"/>
    <path class="cls-245" d="M928.3,396.75c0,41.25-8.36,80.54-23.48,116.28-7.56,17.87-16.81,34.85-27.54,50.74-5.37,7.95-11.11,15.62-17.2,23-3.04,3.69-6.17,7.3-9.39,10.84-1.61,1.77-3.24,3.52-4.88,5.25v-5.22h-432.48v5.22c-1.65-1.73-3.28-3.48-4.88-5.25-3.21-3.54-6.35-7.15-9.39-10.84-6.09-7.38-11.83-15.05-17.2-23-10.74-15.89-19.98-32.87-27.54-50.74-15.12-35.74-23.48-75.03-23.48-116.28s8.36-80.54,23.48-116.28c7.56-17.87,16.81-34.85,27.54-50.74,5.37-7.95,11.11-15.62,17.2-23,1.52-1.84,3.07-3.67,4.63-5.48v2.15h451.76v-2.15c1.56,1.81,3.11,3.63,4.63,5.48,6.09,7.38,11.83,15.05,17.2,23,10.74,15.89,19.98,32.87,27.54,50.74,15.12,35.74,23.48,75.03,23.48,116.28Z"/>
    <path class="cls-31" d="M926.5,396.75c0,41-8.31,80.05-23.33,115.58-7.51,17.76-16.7,34.64-27.38,50.44-5.34,7.9-11.04,15.53-17.09,22.86-3.03,3.67-6.14,7.26-9.33,10.77-1.6,1.76-3.22,3.5-4.85,5.21v-3.98h-429.87v3.98c-1.64-1.72-3.26-3.46-4.85-5.21-3.2-3.52-6.31-7.11-9.33-10.77-6.05-7.33-11.76-14.96-17.09-22.86-10.67-15.8-19.86-32.68-27.38-50.44-15.03-35.52-23.33-74.58-23.33-115.58s8.31-80.05,23.33-115.58c7.51-17.76,16.7-34.64,27.38-50.44,5.34-7.9,11.04-15.53,17.09-22.86,3.03-3.67,6.14-7.26,9.33-10.77v6.3h439.58v-6.3c3.2,3.52,6.31,7.11,9.33,10.77,6.05,7.33,11.76,14.96,17.09,22.86,10.67,15.8,19.86,32.68,27.38,50.44,15.03,35.52,23.33,74.58,23.33,115.58Z"/>
    <path class="cls-140" d="M924.7,396.75c0,40.75-8.26,79.57-23.19,114.88-7.47,17.65-16.6,34.43-27.21,50.13-5.3,7.85-10.98,15.43-16.99,22.72-3.01,3.64-6.1,7.21-9.28,10.71-1.59,1.75-3.2,3.47-4.83,5.18v-2.74h-427.27v2.74c-1.63-1.71-3.24-3.44-4.83-5.18-3.18-3.49-6.27-7.06-9.28-10.71-6.01-7.29-11.69-14.87-16.99-22.72-10.61-15.7-19.74-32.48-27.21-50.13-14.93-35.31-23.19-74.13-23.19-114.88s8.26-79.57,23.19-114.88c7.47-17.65,16.6-34.43,27.21-50.13,5.3-7.85,10.98-15.43,16.99-22.72,3.01-3.64,6.1-7.21,9.28-10.71v5.09h436.92v-5.09c3.18,3.49,6.27,7.06,9.28,10.71,6.01,7.29,11.69,14.87,16.99,22.72,10.61,15.7,19.74,32.48,27.21,50.13,14.93,35.31,23.19,74.13,23.19,114.88Z"/>
    <path class="cls-32" d="M922.9,396.75c0,81-32.83,154.33-85.91,207.41v-6.53h-414.83v6.53c-53.08-53.08-85.91-126.41-85.91-207.41,0-40.5,8.21-79.08,23.05-114.18,7.42-17.55,16.5-34.22,27.04-49.83,5.27-7.8,10.91-15.34,16.89-22.58,2.99-3.62,6.06-7.17,9.22-10.64v3.88h434.25v-3.88c3.16,3.47,6.23,7.02,9.22,10.64,5.98,7.24,11.61,14.78,16.89,22.58,10.54,15.61,19.62,32.28,27.04,49.83,14.84,35.09,23.05,73.68,23.05,114.18Z"/>
    <path class="cls-32" d="M921.1,396.75c0,80.5-32.63,153.39-85.39,206.14v-5.26h-412.28v5.26c-52.76-52.76-85.39-125.64-85.39-206.14,0-40.25,8.16-78.6,22.91-113.48,7.38-17.44,16.4-34.01,26.88-49.52,5.24-7.75,10.84-15.24,16.78-22.44,2.97-3.6,6.03-7.13,9.16-10.58v2.67h431.59v-2.67c3.14,3.45,6.19,6.98,9.16,10.58,5.94,7.2,11.54,14.69,16.78,22.44,10.48,15.51,19.5,32.08,26.88,49.52,14.75,34.88,22.91,73.22,22.91,113.48Z"/>
    <path class="cls-13" d="M919.3,396.75c0,80.01-32.43,152.44-84.86,204.87v-3.99h-409.74v3.99c-52.43-52.43-84.86-124.86-84.86-204.87,0-40,8.11-78.11,22.77-112.78,7.33-17.33,16.3-33.8,26.71-49.21,5.21-7.71,10.77-15.15,16.68-22.3,2.95-3.58,5.99-7.08,9.11-10.51v1.46h428.93v-1.46c3.12,3.43,6.15,6.94,9.11,10.51,5.9,7.15,11.47,14.6,16.68,22.3,10.41,15.41,19.38,31.88,26.71,49.21,14.66,34.66,22.77,72.77,22.77,112.78Z"/>
    <path class="cls-64" d="M917.5,396.75c0,79.51-32.23,151.49-84.33,203.6v-2.71h-407.19v2.71c-52.11-52.11-84.33-124.09-84.33-203.6,0-39.75,8.06-77.63,22.63-112.08,7.29-17.22,16.2-33.59,26.55-48.91,5.17-7.66,10.71-15.06,16.58-22.17,2.93-3.56,5.95-7.04,9.05-10.45v.25h426.26v-.25c3.1,3.41,6.12,6.89,9.05,10.45,5.87,7.11,11.4,14.51,16.58,22.17,10.35,15.32,19.26,31.69,26.55,48.91,14.57,34.45,22.63,72.32,22.63,112.08Z"/>
    <path class="cls-64" d="M915.7,396.75c0,79.01-32.03,150.55-83.81,202.32v-1.44h-404.65v1.44c-51.78-51.78-83.81-123.31-83.81-202.32,0-39.51,8.01-77.14,22.49-111.37,7.24-17.12,16.1-33.38,26.38-48.6,5.14-7.61,10.64-14.96,16.47-22.03,2.92-3.53,5.91-6.99,8.99-10.38,1.54-1.69,3.1-3.37,4.68-5.03v4.07h414.24v-4.07c1.58,1.66,3.14,3.33,4.68,5.03,3.08,3.39,6.08,6.85,8.99,10.38,5.83,7.07,11.33,14.42,16.47,22.03,10.28,15.22,19.14,31.49,26.38,48.6,14.48,34.23,22.49,71.87,22.49,111.37Z"/>
    <path class="cls-224" d="M913.91,396.75c0,78.52-31.82,149.6-83.28,201.05v-.17h-402.1v.17c-51.45-51.45-83.28-122.54-83.28-201.05,0-39.26,7.96-76.66,22.34-110.67,7.19-17.01,16-33.17,26.22-48.3,5.11-7.56,10.57-14.87,16.37-21.89,2.9-3.51,5.88-6.95,8.94-10.32,1.53-1.68,3.08-3.35,4.65-4.99v2.83h411.64v-2.83c1.57,1.65,3.12,3.31,4.65,4.99,3.06,3.37,6.04,6.81,8.94,10.32,5.79,7.02,11.26,14.33,16.37,21.89,10.22,15.13,19.02,31.29,26.22,48.3,14.39,34.02,22.34,71.42,22.34,110.67Z"/>
    <path class="cls-211" d="M912.11,396.75c0,78.02-31.62,148.65-82.75,199.78-1.6,1.6-3.21,3.18-4.85,4.74v-3.63h-389.86v3.63c-1.64-1.56-3.25-3.14-4.85-4.74-51.13-51.13-82.75-121.76-82.75-199.78s31.62-148.65,82.75-199.78v6.44h399.56v-6.44c51.13,51.13,82.75,121.76,82.75,199.78Z"/>
    <path class="cls-110" d="M910.31,396.75c0,77.52-31.42,147.7-82.22,198.51-3.18,3.18-6.43,6.27-9.75,9.3v-6.92h-377.52v6.92c-3.32-3.02-6.57-6.12-9.75-9.3-50.8-50.8-82.22-120.99-82.22-198.51s31.42-147.7,82.22-198.51v5.16h397.01v-5.16c50.8,50.8,82.22,120.99,82.22,198.51Z"/>
    <path class="cls-110" d="M908.51,396.75c0,77.03-31.22,146.76-81.7,197.23-3.15,3.15-6.38,6.23-9.69,9.24v-5.59h-375.1v5.59c-3.3-3-6.53-6.08-9.69-9.24-50.48-50.48-81.7-120.21-81.7-197.23s31.22-146.76,81.7-197.23v3.89h394.47v-3.89c50.48,50.48,81.7,120.21,81.7,197.23Z"/>
    <path class="cls-175" d="M906.71,396.75c0,76.53-31.02,145.81-81.17,195.96-3.13,3.13-6.34,6.19-9.62,9.18v-4.26h-372.68v4.26c-3.28-2.98-6.49-6.04-9.62-9.18-50.15-50.15-81.17-119.43-81.17-195.96s31.02-145.81,81.17-195.96v2.62h391.92v-2.62c50.15,50.15,81.17,119.43,81.17,195.96Z"/>
    <path class="cls-4" d="M904.91,396.75c0,76.03-30.82,144.86-80.64,194.69-3.11,3.11-6.3,6.15-9.56,9.12v-2.92h-370.26v2.92c-3.26-2.96-6.45-6-9.56-9.12-49.83-49.83-80.64-118.66-80.64-194.69s30.82-144.86,80.64-194.69v1.35h389.38v-1.35c49.83,49.83,80.64,118.66,80.64,194.69Z"/>
    <path class="cls-196" d="M903.11,396.75c0,75.53-30.62,143.92-80.12,193.42-3.09,3.09-6.26,6.11-9.5,9.06v-1.59h-367.84v1.59c-3.24-2.94-6.41-5.96-9.5-9.06-49.5-49.5-80.12-117.88-80.12-193.42s30.62-143.92,80.12-193.42v.07h386.83v-.07c49.5,49.5,80.12,117.88,80.12,193.42Z"/>
    <path class="cls-178" d="M901.31,396.75c0,75.04-30.41,142.97-79.59,192.14-3.07,3.07-6.22,6.07-9.44,9v-.26h-365.42v.26c-3.22-2.92-6.36-5.92-9.44-9-49.17-49.17-79.59-117.11-79.59-192.14s30.41-142.97,79.59-192.14c1.54-1.54,3.09-3.06,4.66-4.55v3.36h374.96v-3.36c1.57,1.5,3.13,3.02,4.66,4.55,49.17,49.17,79.59,117.11,79.59,192.14Z"/>
    <path class="cls-178" d="M899.51,396.75c0,74.54-30.21,142.02-79.06,190.87-3.05,3.05-6.18,6.03-9.37,8.94-1.6,1.45-3.21,2.89-4.85,4.3v-3.23h-353.3v3.23c-1.63-1.41-3.25-2.85-4.85-4.3-3.2-2.9-6.32-5.88-9.37-8.94-48.85-48.85-79.06-116.33-79.06-190.87s30.21-142.02,79.06-190.87c3.05-3.05,6.18-6.03,9.37-8.94v6.47h363v-6.47c3.2,2.9,6.32,5.88,9.37,8.94,48.85,48.85,79.06,116.33,79.06,190.87Z"/>
    <path class="cls-259" d="M897.71,396.75c0,74.04-30.01,141.08-78.53,189.6-6.07,6.07-12.42,11.84-19.04,17.31v-6.02h-341.12v6.02c-6.62-5.46-12.98-11.24-19.04-17.31-48.52-48.52-78.53-115.56-78.53-189.6s30.01-141.08,78.53-189.6c3.03-3.03,6.14-5.99,9.31-8.88v5.13h360.58v-5.13c3.17,2.89,6.28,5.85,9.31,8.88,48.52,48.52,78.53,115.56,78.53,189.6Z"/>
    <path class="cls-126" d="M895.91,396.75c0,73.55-29.81,140.13-78.01,188.33-6.02,6.02-12.34,11.76-18.91,17.19v-4.63h-338.83v4.63c-6.58-5.43-12.89-11.17-18.91-17.19-48.2-48.2-78.01-114.78-78.01-188.33s29.81-140.13,78.01-188.33c3.01-3.01,6.1-5.95,9.25-8.82v3.8h358.16v-3.8c3.15,2.87,6.24,5.81,9.25,8.82,48.2,48.2,78.01,114.78,78.01,188.33Z"/>
    <path class="cls-194" d="M894.11,396.75c0,73.05-29.61,139.18-77.48,187.06-5.98,5.98-12.25,11.68-18.79,17.07v-3.25h-336.54v3.25c-6.53-5.39-12.8-11.09-18.79-17.07-47.87-47.87-77.48-114.01-77.48-187.06s29.61-139.18,77.48-187.06c2.99-2.99,6.06-5.91,9.19-8.76v2.47h355.74v-2.47c3.13,2.85,6.2,5.77,9.19,8.76,47.87,47.87,77.48,114.01,77.48,187.06Z"/>
    <path class="cls-45" d="M892.31,396.75c0,72.55-29.41,138.24-76.95,185.78-5.94,5.94-12.17,11.6-18.66,16.96v-1.86h-334.25v1.86c-6.49-5.35-12.71-11.01-18.66-16.96-47.55-47.55-76.95-113.23-76.95-185.78s29.41-138.24,76.95-185.78c2.97-2.97,6.01-5.87,9.12-8.7v1.14h353.32v-1.14c3.11,2.83,6.15,5.73,9.12,8.7,47.55,47.55,76.95,113.23,76.95,185.78Z"/>
    <path class="cls-45" d="M890.51,396.75c0,72.06-29.21,137.29-76.43,184.51-5.9,5.9-12.09,11.52-18.53,16.84v-.47h-331.96v.47c-6.44-5.32-12.63-10.94-18.53-16.84-47.22-47.22-76.43-112.45-76.43-184.51s29.21-137.29,76.43-184.51c2.95-2.95,5.97-5.83,9.06-8.64,1.54-1.4,3.11-2.79,4.68-4.16v3.96h341.53v-3.96c1.58,1.37,3.14,2.75,4.68,4.16,3.09,2.81,6.11,5.69,9.06,8.64,47.22,47.22,76.43,112.45,76.43,184.51Z"/>
    <path class="cls-15" d="M888.71,396.75c0,71.56-29,136.34-75.9,183.24-5.86,5.86-12,11.44-18.4,16.73-3.2,2.64-6.46,5.21-9.79,7.69v-6.77h-310.09v6.77c-3.33-2.49-6.59-5.05-9.79-7.69-6.4-5.28-12.54-10.86-18.4-16.73-46.89-46.89-75.9-111.68-75.9-183.24s29-136.34,75.9-183.24c5.86-5.86,12-11.44,18.4-16.73v6.62h329.67v-6.62c6.4,5.28,12.54,10.86,18.4,16.73,46.89,46.89,75.9,111.68,75.9,183.24Z"/>
    <path class="cls-35" d="M886.91,396.75c0,71.06-28.8,135.4-75.37,181.97-5.82,5.82-11.92,11.36-18.27,16.61-3.18,2.62-6.42,5.17-9.72,7.64v-5.33h-307.94v5.33c-3.3-2.47-6.54-5.02-9.72-7.64-6.35-5.24-12.45-10.79-18.27-16.61-46.57-46.57-75.37-110.9-75.37-181.97s28.8-135.4,75.37-181.97c5.82-5.82,11.92-11.36,18.27-16.61v5.23h327.38v-5.23c6.35,5.24,12.45,10.79,18.27,16.61,46.57,46.57,75.37,110.9,75.37,181.97Z"/>
    <path class="cls-134" d="M885.11,396.75c0,70.56-28.6,134.45-74.85,180.69-5.78,5.78-11.84,11.29-18.15,16.49-3.16,2.6-6.37,5.13-9.65,7.59v-3.89h-305.78v3.89c-3.28-2.45-6.5-4.98-9.65-7.59-6.31-5.21-12.37-10.71-18.15-16.49-46.24-46.24-74.85-110.13-74.85-180.69s28.6-134.45,74.85-180.69c5.78-5.78,11.84-11.29,18.15-16.49v3.84h325.09v-3.84c6.31,5.21,12.37,10.71,18.15,16.49,46.24,46.24,74.85,110.13,74.85,180.69Z"/>
    <path class="cls-129" d="M883.31,396.75c0,70.07-28.4,133.5-74.32,179.42-5.74,5.74-11.75,11.21-18.02,16.38-3.13,2.59-6.33,5.1-9.59,7.53v-2.45h-303.63v2.45c-3.26-2.44-6.45-4.95-9.59-7.53-6.27-5.17-12.28-10.64-18.02-16.38-45.92-45.92-74.32-109.35-74.32-179.42s28.4-133.5,74.32-179.42c5.74-5.74,11.75-11.21,18.02-16.38v2.45h322.8v-2.45c6.27,5.17,12.28,10.64,18.02,16.38,45.92,45.92,74.32,109.35,74.32,179.42Z"/>
    <path class="cls-183" d="M881.51,396.75c0,69.57-28.2,132.56-73.79,178.15-5.7,5.7-11.67,11.13-17.89,16.26-3.11,2.57-6.28,5.06-9.52,7.48v-1h-301.48v1c-3.23-2.42-6.41-4.91-9.52-7.48-6.22-5.13-12.19-10.56-17.89-16.26-45.59-45.59-73.79-108.58-73.79-178.15s28.2-132.56,73.79-178.15c5.7-5.7,11.67-11.13,17.89-16.26v1.06h320.51v-1.06c6.22,5.13,12.19,10.56,17.89,16.26,45.59,45.59,73.79,108.58,73.79,178.15Z"/>
    <path class="cls-87" d="M879.71,396.75c0,69.07-28,131.61-73.26,176.88-11.32,11.32-23.71,21.55-37.02,30.54v-6.54h-279.71v6.54c-13.31-8.99-25.7-19.23-37.02-30.54-45.27-45.27-73.26-107.8-73.26-176.88s28-131.61,73.26-176.88c5.66-5.66,11.59-11.05,17.76-16.14,1.54-1.27,3.1-2.53,4.68-3.77v3.44h308.87v-3.44c1.58,1.24,3.13,2.49,4.68,3.77,6.18,5.1,12.11,10.49,17.76,16.14,45.27,45.27,73.26,107.8,73.26,176.88Z"/>
    <path class="cls-213" d="M877.91,396.75c0,68.58-27.8,130.66-72.74,175.6-11.24,11.24-23.54,21.4-36.75,30.32v-5.04h-277.7v5.04c-13.21-8.93-25.52-19.09-36.75-30.32-44.94-44.94-72.74-107.03-72.74-175.6s27.8-130.66,72.74-175.6c5.62-5.62,11.5-10.97,17.64-16.03,3.07-2.53,6.19-4.99,9.38-7.37v5.66h297.17v-5.66c3.19,2.38,6.32,4.84,9.38,7.37,6.13,5.06,12.02,10.41,17.64,16.03,44.94,44.94,72.74,107.03,72.74,175.6Z"/>
    <path class="cls-75" d="M876.11,396.75c0,68.08-27.59,129.72-72.21,174.33-11.15,11.15-23.37,21.24-36.49,30.1v-3.55h-275.69v3.55c-13.12-8.86-25.33-18.95-36.49-30.1-44.61-44.61-72.21-106.25-72.21-174.33s27.59-129.72,72.21-174.33c5.58-5.58,11.42-10.89,17.51-15.91,3.04-2.51,6.15-4.95,9.31-7.32v4.22h295.02v-4.22c3.16,2.37,6.27,4.81,9.31,7.32,6.09,5.02,11.93,10.34,17.51,15.91,44.61,44.61,72.21,106.25,72.21,174.33Z"/>
    <path class="cls-139" d="M874.32,396.75c0,67.58-27.39,128.77-71.68,173.06-11.07,11.07-23.2,21.09-36.22,29.89v-2.06h-273.67v2.06c-13.02-8.8-25.15-18.81-36.22-29.89-44.29-44.29-71.68-105.47-71.68-173.06s27.39-128.77,71.68-173.06c5.54-5.54,11.34-10.81,17.38-15.8,3.02-2.49,6.1-4.92,9.25-7.27v2.78h292.86v-2.78c3.14,2.35,6.22,4.77,9.25,7.27,6.04,4.99,11.84,10.26,17.38,15.8,44.29,44.29,71.68,105.47,71.68,173.06Z"/>
    <path class="cls-176" d="M872.52,396.75c0,67.09-27.19,127.82-71.16,171.79-10.99,10.99-23.03,20.93-35.95,29.67v-.57h-271.66v.57c-12.92-8.73-24.96-18.67-35.95-29.67-43.96-43.96-71.16-104.7-71.16-171.79s27.19-127.82,71.16-171.79c5.5-5.5,11.25-10.73,17.25-15.68,3-2.48,6.06-4.88,9.18-7.21v1.33h290.71v-1.33c3.12,2.33,6.18,4.74,9.18,7.21,6,4.95,11.76,10.18,17.25,15.68,43.96,43.96,71.16,104.7,71.16,171.79Z"/>
    <path class="cls-9" d="M870.72,396.75c0,66.59-26.99,126.87-70.63,170.51-10.91,10.91-22.86,20.78-35.69,29.45-3.21,2.17-6.47,4.26-9.78,6.27v-5.35h-250.08v5.35c-3.31-2.01-6.58-4.11-9.78-6.27-12.83-8.67-24.78-18.54-35.69-29.45-43.64-43.64-70.63-103.92-70.63-170.51s26.99-126.87,70.63-170.51c10.91-10.91,22.86-20.78,35.69-29.45v6.61h269.65v-6.61c12.83,8.67,24.78,18.54,35.69,29.45,43.64,43.64,70.63,103.92,70.63,170.51Z"/>
    <path class="cls-30" d="M868.92,396.75c0,66.09-26.79,125.93-70.1,169.24-10.83,10.83-22.69,20.62-35.42,29.23-3.18,2.15-6.42,4.23-9.71,6.23v-3.81h-248.21v3.81c-3.29-2-6.53-4.07-9.71-6.23-12.73-8.6-24.59-18.4-35.42-29.23-43.31-43.31-70.1-103.15-70.1-169.24s26.79-125.93,70.1-169.24c10.83-10.83,22.69-20.62,35.42-29.23v5.12h267.64v-5.12c12.73,8.6,24.59,18.4,35.42,29.23,43.31,43.31,70.1,103.15,70.1,169.24Z"/>
    <path class="cls-70" d="M867.12,396.75c0,65.6-26.59,124.98-69.57,167.97-10.75,10.75-22.52,20.47-35.16,29.01-3.16,2.13-6.37,4.19-9.64,6.18v-2.27h-246.35v2.27c-3.27-1.98-6.48-4.04-9.64-6.18-12.64-8.54-24.41-18.26-35.16-29.01-42.99-42.99-69.57-102.37-69.57-167.97s26.59-124.98,69.57-167.97c10.75-10.75,22.52-20.47,35.16-29.01v3.63h265.62v-3.63c12.64,8.54,24.41,18.26,35.16,29.01,42.99,42.99,69.57,102.37,69.57,167.97Z"/>
    <path class="cls-105" d="M865.32,396.75c0,65.1-26.39,124.03-69.05,166.7-10.67,10.67-22.35,20.31-34.89,28.79-6.27,4.24-12.76,8.18-19.44,11.81v-6.41h-224.74v6.41c-6.68-3.63-13.17-7.57-19.44-11.81-12.54-8.47-24.22-18.12-34.89-28.79-42.66-42.66-69.05-101.6-69.05-166.7s26.39-124.03,69.05-166.7c10.67-10.67,22.35-20.31,34.89-28.79v2.14h263.61v-2.14c12.54,8.47,24.22,18.12,34.89,28.79,42.66,42.66,69.05,101.6,69.05,166.7Z"/>
    <path class="cls-148" d="M863.52,396.75c0,64.6-26.18,123.09-68.52,165.42-10.58,10.58-22.18,20.16-34.62,28.57-6.22,4.2-12.66,8.12-19.29,11.72v-4.82h-223.02v4.82c-6.63-3.6-13.07-7.51-19.29-11.72-12.45-8.41-24.04-17.98-34.62-28.57-42.34-42.34-68.52-100.82-68.52-165.42s26.18-123.09,68.52-165.42c10.58-10.58,22.18-20.16,34.62-28.57v.65h261.6v-.65c12.45,8.41,24.04,17.98,34.62,28.57,42.34,42.34,68.52,100.82,68.52,165.42Z"/>
    <path class="cls-173" d="M861.72,396.75c0,64.1-25.98,122.14-67.99,164.15-10.5,10.5-22.01,20-34.36,28.35-6.18,4.17-12.56,8.05-19.14,11.63v-3.24h-221.31v3.24c-6.58-3.57-12.97-7.46-19.14-11.63-12.35-8.34-23.85-17.84-34.36-28.35-42.01-42.01-67.99-100.05-67.99-164.15s25.98-122.14,67.99-164.15c10.5-10.5,22.01-20,34.36-28.35,3.09-2.09,6.23-4.1,9.42-6.04v5.19h240.75v-5.19c3.19,1.94,6.33,3.95,9.42,6.04,12.35,8.34,23.85,17.84,34.36,28.35,42.01,42.01,67.99,100.05,67.99,164.15Z"/>
    <path class="cls-173" d="M859.92,396.75c0,63.61-25.78,121.19-67.47,162.88-10.42,10.42-21.84,19.85-34.09,28.13-6.13,4.14-12.46,7.99-18.99,11.54v-1.66h-219.59v1.66c-6.53-3.55-12.86-7.4-18.99-11.54-12.25-8.28-23.67-17.71-34.09-28.13-41.68-41.68-67.47-99.27-67.47-162.88s25.78-121.19,67.47-162.88c10.42-10.42,21.84-19.85,34.09-28.13,3.06-2.07,6.18-4.07,9.35-5.99v3.65h238.88v-3.65c3.17,1.92,6.28,3.92,9.35,5.99,12.25,8.28,23.67,17.71,34.09,28.13,41.68,41.68,67.47,99.27,67.47,162.88Z"/>
    <path class="cls-203" d="M858.12,396.75c0,63.11-25.58,120.25-66.94,161.61-10.34,10.34-21.67,19.69-33.82,27.91-6.08,4.11-12.37,7.93-18.84,11.45v-.08h-217.88v.08c-6.48-3.52-12.76-7.34-18.84-11.45-12.16-8.21-23.48-17.57-33.82-27.91-41.36-41.36-66.94-98.49-66.94-161.61s25.58-120.25,66.94-161.61c10.34-10.34,21.67-19.69,33.82-27.91,3.04-2.05,6.13-4.04,9.27-5.94v2.11h237.02v-2.11c3.14,1.91,6.23,3.89,9.27,5.94,12.16,8.21,23.48,17.57,33.82,27.91,41.36,41.36,66.94,98.49,66.94,161.61Z"/>
    <path class="cls-200" d="M856.32,396.75c0,62.61-25.38,119.3-66.41,160.33-10.26,10.26-21.49,19.54-33.56,27.69-6.03,4.07-12.27,7.87-18.7,11.36-3.21,1.75-6.47,3.42-9.78,5.01v-3.5h-196.61v3.5c-3.3-1.59-6.56-3.26-9.78-5.01-6.43-3.49-12.66-7.28-18.7-11.36-12.06-8.15-23.3-17.43-33.56-27.69-41.03-41.03-66.41-97.72-66.41-160.33s25.38-119.3,66.41-160.33c10.26-10.26,21.49-19.54,33.56-27.69,6.03-4.07,12.27-7.87,18.7-11.36v6.03h216.16v-6.03c6.43,3.49,12.66,7.28,18.7,11.36,12.06,8.15,23.3,17.43,33.56,27.69,41.03,41.03,66.41,97.72,66.41,160.33Z"/>
    <path class="cls-94" d="M854.52,396.75c0,62.12-25.18,118.35-65.88,159.06-20.35,20.35-44.59,36.82-71.5,48.21v-6.39h-175.12v6.39c-26.91-11.38-51.15-27.85-71.5-48.21-40.71-40.71-65.88-96.94-65.88-159.06s25.18-118.35,65.88-159.06c10.18-10.18,21.32-19.38,33.29-27.47,5.98-4.04,12.17-7.8,18.55-11.27v4.45h214.44v-4.45c6.37,3.46,12.56,7.23,18.55,11.27,11.97,8.08,23.11,17.29,33.29,27.47,40.71,40.71,65.88,96.94,65.88,159.06Z"/>
    <path class="cls-193" d="M852.72,396.75c0,61.62-24.98,117.41-65.36,157.79-20.19,20.19-44.23,36.53-70.93,47.82v-4.73h-173.72v4.73c-26.7-11.29-50.74-27.63-70.93-47.82-40.38-40.38-65.36-96.17-65.36-157.79s24.98-117.41,65.36-157.79c10.1-10.1,21.15-19.23,33.02-27.25,5.94-4.01,12.07-7.74,18.4-11.18v2.87h212.73v-2.87c6.32,3.44,12.46,7.17,18.4,11.18,11.87,8.02,22.93,17.15,33.02,27.25,40.38,40.38,65.36,96.17,65.36,157.79Z"/>
    <path class="cls-231" d="M850.92,396.75c0,61.12-24.78,116.46-64.83,156.52-20.03,20.03-43.88,36.24-70.36,47.44v-3.07h-172.32v3.07c-26.48-11.2-50.33-27.41-70.36-47.44-40.06-40.06-64.83-95.39-64.83-156.52s24.78-116.46,64.83-156.52c10.01-10.01,20.98-19.07,32.76-27.03,5.89-3.98,11.98-7.68,18.25-11.09v1.29h211.01v-1.29c6.27,3.41,12.36,7.11,18.25,11.09,11.78,7.96,22.74,17.01,32.76,27.03,40.06,40.06,64.83,95.39,64.83,156.52Z"/>
    <path class="cls-166" d="M849.12,396.75c0,60.63-24.57,115.51-64.3,155.24-19.87,19.87-43.52,35.94-69.79,47.05v-1.41h-170.91v1.41c-26.27-11.11-49.92-27.19-69.79-47.05-39.73-39.73-64.3-94.62-64.3-155.24s24.57-115.51,64.3-155.24c9.93-9.93,20.81-18.92,32.49-26.81,5.84-3.95,11.88-7.62,18.1-11,3.11-1.69,6.27-3.31,9.47-4.85v4.55h190.37v-4.55c3.2,1.54,6.36,3.16,9.47,4.85,6.22,3.38,12.26,7.05,18.1,11,11.68,7.89,22.56,16.88,32.49,26.81,39.73,39.73,64.3,94.62,64.3,155.24Z"/>
    <path class="cls-216" d="M847.32,396.75c0,60.13-24.37,114.57-63.78,153.97-19.7,19.7-43.16,35.65-69.21,46.67-3.26,1.38-6.55,2.68-9.89,3.9v-3.65h-149.74v3.65c-3.34-1.22-6.63-2.52-9.89-3.9-26.05-11.02-49.51-26.96-69.21-46.67-39.4-39.4-63.78-93.84-63.78-153.97s24.37-114.57,63.78-153.97c9.85-9.85,20.64-18.76,32.23-26.59,5.79-3.91,11.78-7.55,17.95-10.91,3.09-1.68,6.22-3.28,9.39-4.81v2.93h188.8v-2.93c3.17,1.53,6.3,3.13,9.39,4.81,6.17,3.35,12.16,6.99,17.95,10.91,11.58,7.83,22.37,16.74,32.23,26.59,39.4,39.4,63.78,93.84,63.78,153.97Z"/>
    <path class="cls-1" d="M845.52,396.75c0,59.63-24.17,113.62-63.25,152.7-19.54,19.54-42.81,35.35-68.64,46.28-6.46,2.73-13.08,5.16-19.84,7.26v-5.36h-128.43v5.36c-6.76-2.1-13.38-4.53-19.84-7.26-25.84-10.93-49.1-26.74-68.64-46.28-39.08-39.08-63.25-93.07-63.25-152.7s24.17-113.62,63.25-152.7c19.54-19.54,42.81-35.35,68.64-46.28v5.63h168.11v-5.63c25.84,10.93,49.1,26.74,68.64,46.28,39.08,39.08,63.25,93.07,63.25,152.7Z"/>
    <path class="cls-78" d="M843.72,396.75c0,59.14-23.97,112.67-62.72,151.43-19.38,19.38-42.45,35.06-68.07,45.89-6.41,2.71-12.97,5.12-19.68,7.2v-3.64h-127.36v3.64c-6.71-2.09-13.27-4.49-19.68-7.2-25.62-10.84-48.69-26.52-68.07-45.89-38.75-38.75-62.72-92.29-62.72-151.43s23.97-112.67,62.72-151.43c19.38-19.38,42.45-35.06,68.07-45.89v3.98h166.71v-3.98c25.62,10.84,48.69,26.52,68.07,45.89,38.75,38.75,62.72,92.29,62.72,151.43Z"/>
    <path class="cls-234" d="M841.92,396.75c0,58.64-23.77,111.73-62.2,150.15-19.21,19.21-42.09,34.76-67.5,45.51-6.35,2.69-12.86,5.07-19.51,7.14v-1.92h-126.29v1.92c-6.65-2.07-13.16-4.45-19.51-7.14-25.41-10.75-48.28-26.29-67.5-45.51-38.43-38.43-62.2-91.51-62.2-150.15s23.77-111.73,62.2-150.15c19.21-19.21,42.09-34.76,67.5-45.51v2.32h165.31v-2.32c25.41,10.75,48.28,26.29,67.5,45.51,38.43,38.43,62.2,91.51,62.2,150.15Z"/>
    <path class="cls-252" d="M840.12,396.75c0,58.14-23.57,110.78-61.67,148.88-19.05,19.05-41.74,34.47-66.93,45.12-12.59,5.33-25.82,9.46-39.52,12.27v-5.39h-84.87v5.39c-13.71-2.8-26.93-6.94-39.52-12.27-25.19-10.65-47.87-26.07-66.93-45.12-38.1-38.1-61.67-90.74-61.67-148.88s23.57-110.78,61.67-148.88c19.05-19.05,41.74-34.47,66.93-45.12v.66h163.91v-.66c25.19,10.65,47.87,26.07,66.93,45.12,38.1,38.1,61.67,90.74,61.67,148.88Z"/>
    <path class="cls-74" d="M838.32,396.75c0,57.64-23.37,109.83-61.14,147.61-18.89,18.89-41.38,34.17-66.35,44.74-12.49,5.28-25.6,9.38-39.18,12.16v-3.63h-84.14v3.63c-13.59-2.78-26.7-6.88-39.18-12.16-24.97-10.56-47.47-25.85-66.35-44.74-37.78-37.78-61.14-89.96-61.14-147.61s23.37-109.83,61.14-147.61c18.89-18.89,41.38-34.17,66.35-44.74,6.24-2.64,12.64-4.99,19.18-7.02v6.02h124.15v-6.02c6.54,2.03,12.94,4.38,19.18,7.02,24.97,10.56,47.47,25.85,66.35,44.74,37.78,37.78,61.14,89.96,61.14,147.61Z"/>
    <path class="cls-7" d="M836.52,396.75c0,114.3-92.65,206.95-206.95,206.95s-206.95-92.65-206.95-206.95c0-57.15,23.16-108.89,60.61-146.34,18.73-18.73,41.02-33.88,65.78-44.35,6.19-2.62,12.53-4.94,19.01-6.96v4.3h123.08v-4.3c6.48,2.02,12.82,4.34,19.01,6.96,24.76,10.47,47.06,25.63,65.78,44.35,37.45,37.45,60.61,89.19,60.61,146.34Z"/>
    <path class="cls-181" d="M834.72,396.75c0,113.3-91.85,205.15-205.15,205.15s-205.15-91.85-205.15-205.15c0-56.65,22.96-107.94,60.09-145.06,18.56-18.56,40.67-33.58,65.21-43.97,6.14-2.6,12.42-4.9,18.85-6.9v2.58h122.01v-2.58c6.42,2,12.71,4.3,18.85,6.9,24.54,10.38,46.65,25.4,65.21,43.97,37.12,37.12,60.09,88.41,60.09,145.06Z"/>
    <path class="cls-142" d="M832.93,396.75c0,112.31-91.04,203.35-203.35,203.35s-203.35-91.04-203.35-203.35c0-56.15,22.76-106.99,59.56-143.79,18.4-18.4,40.31-33.29,64.64-43.58,12.16-5.15,24.93-9.14,38.17-11.85v5.88h81.96v-5.88c13.24,2.71,26.01,6.7,38.17,11.85,24.33,10.29,46.24,25.18,64.64,43.58,36.8,36.8,59.56,87.64,59.56,143.79Z"/>
    <path class="cls-42" d="M831.13,396.75c0,111.31-90.24,201.55-201.55,201.55s-201.55-90.24-201.55-201.55c0-55.66,22.56-106.04,59.03-142.52,18.24-18.24,39.95-33,64.07-43.19,12.06-5.1,24.71-9.06,37.83-11.74v4.11h81.24v-4.11c13.12,2.68,25.78,6.64,37.83,11.74,24.11,10.2,45.83,24.96,64.07,43.19,36.47,36.47,59.03,86.86,59.03,142.52Z"/>
    <circle class="cls-113" cx="629.57" cy="396.75" r="199.75"/>
    <circle class="cls-177" cx="629.57" cy="396.75" r="197.95"/>
    <circle class="cls-232" cx="629.57" cy="396.75" r="196.15"/>
    <circle class="cls-40" cx="629.57" cy="396.75" r="194.35"/>
    <circle class="cls-18" cx="629.57" cy="396.75" r="192.55"/>
    <circle class="cls-167" cx="629.57" cy="396.75" r="190.75"/>
    <circle class="cls-97" cx="629.57" cy="396.75" r="188.95"/>
    <circle class="cls-12" cx="629.57" cy="396.75" r="187.15"/>
    <circle class="cls-100" cx="629.57" cy="396.75" r="185.36"/>
    <circle class="cls-91" cx="629.57" cy="396.75" r="183.56"/>
    <circle class="cls-210" cx="629.57" cy="396.75" r="181.76"/>
    <circle class="cls-51" cx="629.57" cy="396.75" r="179.96"/>
    <circle class="cls-223" cx="629.57" cy="396.75" r="178.16"/>
    <circle class="cls-130" cx="629.57" cy="396.75" r="176.36"/>
    <circle class="cls-21" cx="629.57" cy="396.75" r="174.56"/>
    <circle class="cls-88" cx="629.57" cy="396.75" r="172.76"/>
    <circle class="cls-243" cx="629.57" cy="396.75" r="170.96"/>
    <circle class="cls-180" cx="629.57" cy="396.75" r="169.16"/>
    <circle class="cls-240" cx="629.57" cy="396.75" r="167.36"/>
    <circle class="cls-133" cx="629.57" cy="396.75" r="165.56"/>
    <circle class="cls-238" cx="629.57" cy="396.75" r="163.76"/>
    <circle class="cls-68" cx="629.57" cy="396.75" r="161.96"/>
    <circle class="cls-56" cx="629.57" cy="396.75" r="160.16"/>
    <circle class="cls-99" cx="629.57" cy="396.75" r="158.36"/>
    <circle class="cls-29" cx="629.57" cy="396.75" r="156.56"/>
    <circle class="cls-227" cx="629.57" cy="396.75" r="154.76"/>
    <circle class="cls-225" cx="629.57" cy="396.75" r="152.96"/>
    <circle class="cls-61" cx="629.57" cy="396.75" r="151.16"/>
    <circle class="cls-11" cx="629.57" cy="396.75" r="149.36"/>
    <circle class="cls-37" cx="629.57" cy="396.75" r="147.56"/>
    <circle class="cls-76" cx="629.57" cy="396.75" r="145.76"/>
    <circle class="cls-248" cx="629.57" cy="396.75" r="143.97"/>
    <circle class="cls-20" cx="629.57" cy="396.75" r="142.17"/>
    <circle class="cls-256" cx="629.57" cy="396.75" r="140.37"/>
    <circle class="cls-109" cx="629.57" cy="396.75" r="138.57"/>
    <circle class="cls-59" cx="629.57" cy="396.75" r="136.77"/>
    <circle class="cls-120" cx="629.57" cy="396.75" r="134.97"/>
    <circle class="cls-220" cx="629.57" cy="396.75" r="133.17"/>
    <circle class="cls-157" cx="629.57" cy="396.75" r="131.37"/>
    <circle class="cls-28" cx="629.57" cy="396.75" r="129.57"/>
    <circle class="cls-47" cx="629.57" cy="396.75" r="127.77"/>
    <circle class="cls-158" cx="629.57" cy="396.75" r="125.97"/>
    <circle class="cls-23" cx="629.57" cy="396.75" r="124.17"/>
    <circle class="cls-127" cx="629.57" cy="396.75" r="122.37"/>
    <circle class="cls-135" cx="629.57" cy="396.75" r="120.57"/>
    <circle class="cls-84" cx="629.57" cy="396.75" r="118.77"/>
    <circle class="cls-50" cx="629.57" cy="396.75" r="116.97"/>
    <circle class="cls-253" cx="629.57" cy="396.75" r="115.17"/>
    <circle class="cls-202" cx="629.57" cy="396.75" r="113.37"/>
    <circle class="cls-2" cx="629.57" cy="396.75" r="111.57"/>
    <circle class="cls-62" cx="629.57" cy="396.75" r="109.77"/>
    <circle class="cls-65" cx="629.57" cy="396.75" r="107.97"/>
    <circle class="cls-22" cx="629.57" cy="396.75" r="106.17"/>
    <circle class="cls-228" cx="629.57" cy="396.75" r="104.37"/>
    <circle class="cls-236" cx="629.57" cy="396.75" r="102.58"/>
    <circle class="cls-244" cx="629.57" cy="396.75" r="100.78"/>
    <circle class="cls-209" cx="629.57" cy="396.75" r="98.98"/>
    <circle class="cls-63" cx="629.57" cy="396.75" r="97.18"/>
    <circle class="cls-41" cx="629.57" cy="396.75" r="95.38"/>
    <circle class="cls-162" cx="629.57" cy="396.75" r="93.58"/>
    <circle class="cls-146" cx="629.57" cy="396.75" r="91.78"/>
    <circle class="cls-198" cx="629.57" cy="396.75" r="89.98"/>
    <circle class="cls-112" cx="629.57" cy="396.75" r="88.18"/>
    <circle class="cls-16" cx="629.57" cy="396.75" r="86.38"/>
    <circle class="cls-182" cx="629.57" cy="396.75" r="84.58"/>
    <circle class="cls-103" cx="629.57" cy="396.75" r="82.78"/>
    <circle class="cls-71" cx="629.57" cy="396.75" r="80.98"/>
    <circle class="cls-204" cx="629.57" cy="396.75" r="79.18"/>
    <circle class="cls-96" cx="629.57" cy="396.75" r="77.38"/>
    <circle class="cls-214" cx="629.57" cy="396.75" r="75.58"/>
    <circle class="cls-153" cx="629.57" cy="396.75" r="73.78"/>
    <circle class="cls-169" cx="629.57" cy="396.75" r="71.98"/>
    <circle class="cls-67" cx="629.57" cy="396.75" r="70.18"/>
    <circle class="cls-132" cx="629.57" cy="396.75" r="68.38"/>
    <circle class="cls-122" cx="629.57" cy="396.75" r="66.58"/>
    <circle class="cls-170" cx="629.57" cy="396.75" r="64.78"/>
    <circle class="cls-114" cx="629.57" cy="396.75" r="62.98"/>
    <circle class="cls-101" cx="629.57" cy="396.75" r="61.19"/>
    <circle class="cls-208" cx="629.57" cy="396.75" r="59.39"/>
    <circle class="cls-215" cx="629.57" cy="396.75" r="57.59"/>
    <circle class="cls-230" cx="629.57" cy="396.75" r="55.79"/>
    <circle class="cls-60" cx="629.57" cy="396.75" r="53.99"/>
    <circle class="cls-261" cx="629.57" cy="396.75" r="52.19"/>
    <circle class="cls-147" cx="629.57" cy="396.75" r="50.39"/>
    <circle class="cls-151" cx="629.57" cy="396.75" r="48.59"/>
    <circle class="cls-5" cx="629.57" cy="396.75" r="46.79"/>
    <circle class="cls-152" cx="629.57" cy="396.75" r="44.99"/>
    <circle class="cls-149" cx="629.57" cy="396.75" r="43.19"/>
    <circle class="cls-43" cx="629.57" cy="396.75" r="41.39"/>
    <circle class="cls-124" cx="629.57" cy="396.75" r="39.59"/>
    <circle class="cls-26" cx="629.57" cy="396.75" r="37.79"/>
    <circle class="cls-217" cx="629.57" cy="396.75" r="35.99"/>
    <circle class="cls-81" cx="629.57" cy="396.75" r="34.19"/>
    <circle class="cls-201" cx="629.57" cy="396.75" r="32.39"/>
    <circle class="cls-79" cx="629.57" cy="396.75" r="30.59"/>
    <circle class="cls-165" cx="629.57" cy="396.75" r="28.79"/>
    <circle class="cls-187" cx="629.57" cy="396.75" r="26.99"/>
    <circle class="cls-25" cx="629.57" cy="396.75" r="25.19"/>
    <circle class="cls-46" cx="629.57" cy="396.75" r="23.39"/>
    <circle class="cls-161" cx="629.57" cy="396.75" r="21.59"/>
    <circle class="cls-155" cx="629.57" cy="396.75" r="19.8"/>
    <circle class="cls-185" cx="629.57" cy="396.75" r="18"/>
    <circle class="cls-72" cx="629.57" cy="396.75" r="16.2"/>
    <circle class="cls-171" cx="629.57" cy="396.75" r="14.4"/>
    <circle class="cls-164" cx="629.57" cy="396.75" r="12.6"/>
    <circle class="cls-93" cx="629.57" cy="396.75" r="10.8"/>
    <circle class="cls-106" cx="629.57" cy="396.75" r="9"/>
    <circle class="cls-229" cx="629.57" cy="396.75" r="7.2"/>
    <circle class="cls-19" cx="629.57" cy="396.75" r="5.4"/>
    <circle class="cls-14" cx="629.57" cy="396.75" r="3.6"/>
    <circle class="cls-48" cx="629.57" cy="396.75" r="1.8"/>
  </g>
  <g class="cls-115">
    <rect class="cls-192" x="458.16" y="225.33" width="342.83" height="342.83"/>
    <circle class="cls-192" cx="629.57" cy="396.75" r="168.37"/>
    <circle class="cls-131" cx="629.57" cy="396.75" r="166.54"/>
    <circle class="cls-160" cx="629.57" cy="396.75" r="164.71"/>
    <circle class="cls-89" cx="629.57" cy="396.75" r="162.88"/>
    <circle class="cls-55" cx="629.57" cy="396.75" r="161.05"/>
    <circle class="cls-137" cx="629.57" cy="396.75" r="159.22"/>
    <circle class="cls-262" cx="629.57" cy="396.75" r="157.39"/>
    <circle class="cls-189" cx="629.57" cy="396.75" r="155.56"/>
    <circle class="cls-111" cx="629.57" cy="396.75" r="153.73"/>
    <circle class="cls-141" cx="629.57" cy="396.75" r="151.9"/>
    <circle class="cls-6" cx="629.57" cy="396.75" r="150.07"/>
    <circle class="cls-263" cx="629.57" cy="396.75" r="148.24"/>
    <circle class="cls-188" cx="629.57" cy="396.75" r="146.41"/>
    <circle class="cls-197" cx="629.57" cy="396.75" r="144.58"/>
    <circle class="cls-154" cx="629.57" cy="396.75" r="142.75"/>
    <circle class="cls-3" cx="629.57" cy="396.75" r="140.92"/>
    <circle class="cls-235" cx="629.57" cy="396.75" r="139.09"/>
    <circle class="cls-246" cx="629.57" cy="396.75" r="137.26"/>
    <circle class="cls-83" cx="629.57" cy="396.75" r="135.43"/>
    <circle class="cls-145" cx="629.57" cy="396.75" r="133.6"/>
    <circle class="cls-49" cx="629.57" cy="396.75" r="131.77"/>
    <circle class="cls-104" cx="629.57" cy="396.75" r="129.94"/>
    <circle class="cls-260" cx="629.57" cy="396.75" r="128.11"/>
    <circle class="cls-247" cx="629.57" cy="396.75" r="126.28"/>
    <circle class="cls-251" cx="629.57" cy="396.75" r="124.45"/>
    <circle class="cls-58" cx="629.57" cy="396.75" r="122.62"/>
    <circle class="cls-254" cx="629.57" cy="396.75" r="120.79"/>
    <circle class="cls-54" cx="629.57" cy="396.75" r="118.96"/>
    <circle class="cls-191" cx="629.57" cy="396.75" r="117.13"/>
    <circle class="cls-205" cx="629.57" cy="396.75" r="115.3"/>
    <circle class="cls-24" cx="629.57" cy="396.75" r="113.47"/>
    <circle class="cls-219" cx="629.57" cy="396.75" r="111.64"/>
    <circle class="cls-34" cx="629.57" cy="396.75" r="109.81"/>
    <circle class="cls-52" cx="629.57" cy="396.75" r="107.98"/>
    <circle class="cls-233" cx="629.57" cy="396.75" r="106.15"/>
    <circle class="cls-125" cx="629.57" cy="396.75" r="104.31"/>
    <circle class="cls-186" cx="629.57" cy="396.75" r="102.48"/>
    <circle class="cls-190" cx="629.57" cy="396.75" r="100.65"/>
    <circle class="cls-108" cx="629.57" cy="396.75" r="98.82"/>
    <circle class="cls-33" cx="629.57" cy="396.75" r="96.99"/>
    <circle class="cls-156" cx="629.57" cy="396.75" r="95.16"/>
    <circle class="cls-226" cx="629.57" cy="396.75" r="93.33"/>
    <circle class="cls-241" cx="629.57" cy="396.75" r="91.5"/>
    <circle class="cls-119" cx="629.57" cy="396.75" r="89.67"/>
    <circle class="cls-10" cx="629.57" cy="396.75" r="87.84"/>
    <circle class="cls-86" cx="629.57" cy="396.75" r="86.01"/>
    <circle class="cls-121" cx="629.57" cy="396.75" r="84.18"/>
    <circle class="cls-257" cx="629.57" cy="396.75" r="82.35"/>
    <circle class="cls-27" cx="629.57" cy="396.75" r="80.52"/>
    <circle class="cls-107" cx="629.57" cy="396.75" r="78.69"/>
    <circle class="cls-172" cx="629.57" cy="396.75" r="76.86"/>
    <circle class="cls-85" cx="629.57" cy="396.75" r="75.03"/>
    <circle class="cls-136" cx="629.57" cy="396.75" r="73.2"/>
    <circle class="cls-116" cx="629.57" cy="396.75" r="71.37"/>
    <circle class="cls-123" cx="629.57" cy="396.75" r="69.54"/>
    <circle class="cls-39" cx="629.57" cy="396.75" r="67.71"/>
    <circle class="cls-207" cx="629.57" cy="396.75" r="65.88"/>
    <circle class="cls-218" cx="629.57" cy="396.75" r="64.05"/>
    <circle class="cls-102" cx="629.57" cy="396.75" r="62.22"/>
    <circle class="cls-255" cx="629.57" cy="396.75" r="60.39"/>
    <circle class="cls-90" cx="629.57" cy="396.75" r="58.56"/>
    <circle class="cls-98" cx="629.57" cy="396.75" r="56.73"/>
    <circle class="cls-206" cx="629.57" cy="396.75" r="54.9"/>
    <circle class="cls-69" cx="629.57" cy="396.75" r="53.07"/>
    <circle class="cls-258" cx="629.57" cy="396.75" r="51.24"/>
    <circle class="cls-250" cx="629.57" cy="396.75" r="49.41"/>
    <circle class="cls-221" cx="629.57" cy="396.75" r="47.58"/>
    <circle class="cls-168" cx="629.57" cy="396.75" r="45.75"/>
    <circle class="cls-118" cx="629.57" cy="396.75" r="43.92"/>
    <circle class="cls-179" cx="629.57" cy="396.75" r="42.09"/>
    <circle class="cls-199" cx="629.57" cy="396.75" r="40.26"/>
    <circle class="cls-222" cx="629.57" cy="396.75" r="38.43"/>
    <circle class="cls-66" cx="629.57" cy="396.75" r="36.6"/>
    <circle class="cls-128" cx="629.57" cy="396.75" r="34.77"/>
    <circle class="cls-159" cx="629.57" cy="396.75" r="32.94"/>
    <circle class="cls-117" cx="629.57" cy="396.75" r="31.11"/>
    <circle class="cls-239" cx="629.57" cy="396.75" r="29.28"/>
    <circle class="cls-92" cx="629.57" cy="396.75" r="27.45"/>
    <circle class="cls-163" cx="629.57" cy="396.75" r="25.62"/>
    <circle class="cls-150" cx="629.57" cy="396.75" r="23.79"/>
    <circle class="cls-237" cx="629.57" cy="396.75" r="21.96"/>
    <circle class="cls-237" cx="629.57" cy="396.75" r="20.13"/>
    <circle class="cls-17" cx="629.57" cy="396.75" r="18.3"/>
    <circle class="cls-77" cx="629.57" cy="396.75" r="16.47"/>
    <circle class="cls-174" cx="629.57" cy="396.75" r="14.64"/>
    <circle class="cls-184" cx="629.57" cy="396.75" r="12.81"/>
    <circle class="cls-144" cx="629.57" cy="396.75" r="10.98"/>
    <circle class="cls-53" cx="629.57" cy="396.75" r="9.15"/>
    <circle class="cls-36" cx="629.57" cy="396.75" r="7.32"/>
    <circle class="cls-36" cx="629.57" cy="396.75" r="5.49"/>
    <circle class="cls-44" cx="629.57" cy="396.75" r="3.66"/>
    <circle class="cls-80" cx="629.57" cy="396.75" r="1.83"/>
  </g>
</svg>