<?xml version="1.0" encoding="UTF-8"?>
<svg id="Layer_4" data-name="Layer 4" xmlns="http://www.w3.org/2000/svg" xmlns:xlink="http://www.w3.org/1999/xlink" viewBox="60 320 1030 240">
  <defs>
    <style>
      .cls-1 {
        fill: #85b8fd;
      }

      .cls-2 {
        fill: url(#radial-gradient);
      }
    </style>
    <radialGradient id="radial-gradient" cx="263.12" cy="367.34" fx="263.12" fy="367.34" r="180.61" gradientUnits="userSpaceOnUse">
      <stop offset="0" stop-color="#9400d3"/>
      <stop offset=".13" stop-color="#911dd9"/>
      <stop offset=".43" stop-color="#8c5fe8"/>
      <stop offset=".69" stop-color="#888ff3"/>
      <stop offset=".89" stop-color="#85acfa"/>
      <stop offset="1" stop-color="#85b8fd"/>
    </radialGradient>
  </defs>
  <path class="cls-1" d="M1073.76,386.93c-7.16,11.06-18,21.9-24.29,21.9-3.69,0-5.2-2.6-5.2-7.16,0-11.06,13.23-39.9,21.47-57.9-8.46.22-26.89-.65-37.3-2.82.65-2.82,1.52-5.64,2.17-8.68h-16.92c-4.32,19.62-11.34,40.71-22.03,57.12-10.75,14.22-22.55,21.17-37.83,21.17-14.1,0-20.82-6.29-22.12-16.05,23.86,5.42,51.83-7.37,51.83-32.75,0-11.93-8.46-24.51-25.16-24.51-25.14,0-43.26,23.31-45.52,49.73-8.75,12.94-17.69,21.84-24.32,21.84-3.25,0-5.2-1.95-5.2-5.42,0-10.84,17.57-32.75,17.35-48.15,0-10.84-7.16-18-17.78-18-11.5,0-23.42,7.16-32.1,20.82,8.02-23.21,15.83-46.19,24.51-69.18h-18.87c-8.85,25.15-20.8,60.23-31.24,91.13-10.35,17.07-21.63,28.8-29.27,28.8-11.71,0-10.41-15.62,3.25-54.43h19.09l5.2-14.96h-18.87c3.47-9.32,7.38-19.52,11.93-31.01h-19.09l-11.49,31.01h-10.63l-4.99,14.96h10.41c-2.66,7.77-5.04,15.33-6.9,22.47-13.05,22.68-26.78,33.7-46.02,33.7-14.1,0-20.82-6.29-22.12-16.05,23.86,5.42,51.83-7.37,51.83-32.75,0-11.93-8.46-24.51-25.16-24.51-25.32,0-43.52,23.65-45.56,50.32-9.18,13.34-19.51,22.15-32.73,28.84l25.38-76.99h-18.65l-2.82,8.24c-4.12-5.64-12.36-10.41-23.42-10.41-17.56,0-32.71,14.18-38.89,32.58-5.4,2.18-11.48,2.25-17.07.38v-1.52c0-15.62-9.33-31.45-28.41-31.45-24.99,0-43.8,23.39-46.83,50.44-8.86,12.81-17.88,21.12-24.3,21.12-11.71,0-10.41-15.62,3.25-54.43h19.09l5.2-14.96h-18.87c3.47-9.32,7.38-19.52,11.93-31.01h-19.09l-11.49,31.01h-10.63l-4.99,14.96h10.41c-13.23,38.6-19.52,72.22,10.19,72.22,10.84,0,21.68-8.82,30.54-19.82,3.73,11.82,13.44,19.82,27.15,19.82,22.56,0,38.82-18.87,44.68-40.77,5.58,1.23,11.18.88,16.32-.46-.04.8-.05,1.6-.05,2.41,0,17.78,11.28,27.98,25.59,27.98,8.02,0,17.13-4.12,22.55-11.06l-6.29,18.65c-27.76,3.04-62.89,14.53-62.89,39.04,0,12.8,10.63,20.82,25.81,20.82,19.3,0,38.82-12.8,49.88-46.19l.87-2.38c16.88-6.28,30.15-16.16,40.61-29.22,4.99,13.35,18.03,21.19,34.87,21.19,21.84,0,35.85-8.88,46.05-21.39.55,13.09,6.42,21.39,21.19,21.39,7.63,0,15.26-4.38,22.2-10.8-1.02,3.03-1.99,5.93-2.9,8.63h19.08c7.38-27.98,25.38-70.05,44.89-70.05,4.56,0,6.29,2.6,6.29,6.72,0,11.28-16.7,30.15-16.7,46.84,0,11.06,6.72,18.65,18.87,18.65s23.01-9.62,32.11-21.29c4.97,13.41,18.03,21.29,34.91,21.29s29.11-5.32,38.5-13.53c1.26-.73,2.62-1.83,4.01-3.39,10.85-12.58,22.34-30.36,31.02-53.13,6.07,1.52,13.01,2.17,17.57,2.38-8.02,17.57-15.62,33.62-15.62,47.5,0,10.84,6.51,20.17,19.09,20.17,17.57,0,33.4-17.57,40.12-29.28l-10.62-10.41ZM957.08,353.1c5.64,0,8.89,4.12,8.68,9.54-.22,13.88-18,22.12-33.4,19.3,2.6-15.62,12.58-28.84,24.72-28.84ZM731.09,353.1c5.64,0,8.89,4.12,8.68,9.54-.22,13.88-18,22.12-33.4,19.3,2.6-15.62,12.58-28.84,24.72-28.84ZM534.16,409.49c-7.38,0-12.36-5.64-12.36-16.27,0-18,12.14-39.69,25.59-39.69,8.24,0,12.14,7.16,12.14,16.27,0,18-12.14,39.69-25.37,39.69ZM599.88,467.61c-5.86,0-9.98-2.17-9.98-7.59,0-12.36,24.94-20.6,39.9-22.34-7.81,20.39-19.3,29.93-29.93,29.93ZM624.39,399.95c-7.81,0-12.8-5.21-12.8-14.75,0-15.4,8.67-31.88,25.16-31.88,6.72,0,13.45,3.69,16.48,7.59-6.29,18.22-14.31,39.04-28.84,39.04Z"/>
  <path class="cls-2" d="M273.99,411.51c-1.24,1.55-1.61,3.61-1.01,5.5,7.47,23.36,26.75,39.16,53.93,39.16,44.85,0,77.19-37.52,88.84-81.08,4.97-18.98,4.31-34.07,4.31-34.07,0-31.05-19.87-62.53-56.49-62.53-31.27,0-54.05,12.05-115.72,84.81-60.18,71.01-87.52,58.14-87.52,58.14-17.07-6.56-21.57-36.16-10.05-66.11,11.51-29.95,34.68-48.9,51.75-42.34,14.81,5.69,20.16,28.74,13.79,54.3-.73,2.91,2.89,4.89,4.97,2.72l33.55-35.01c1.27-1.32,1.83-3.16,1.57-4.98-3.88-27.07-22.26-51.54-55.71-51.54-54.34,0-94.01,55.63-94.01,115.58,0,35.36,21.99,62.1,57.36,62.1,0,0,50.32,3.51,111.87-73.35,60.62-75.7,76.58-72.83,90.01-69.83,17.84,3.99,21.57,36.16,10.05,66.11-11.51,29.95-34.68,48.9-51.75,42.34-12.7-4.88-18.44-22.51-15.81-43.56.37-2.92-3.36-4.48-5.2-2.18l-28.71,35.8Z"/>
</svg>