<?xml version="1.0" encoding="UTF-8"?>
<svg id="Layer_1" data-name="Layer 1" xmlns="http://www.w3.org/2000/svg" xmlns:xlink="http://www.w3.org/1999/xlink" viewBox="0 0 1190.55 841.89">
  <defs>
    <style>
      .cls-1 {
        fill: #85b8fd;
      }

      .cls-2 {
        fill: url(#radial-gradient);
      }
    </style>
    <radialGradient id="radial-gradient" cx="602.15" cy="239.21" fx="602.15" fy="239.21" r="326.79" gradientUnits="userSpaceOnUse">
      <stop offset="0" stop-color="#9400d3"/>
      <stop offset=".13" stop-color="#911dd9"/>
      <stop offset=".43" stop-color="#8c5fe8"/>
      <stop offset=".69" stop-color="#888ff3"/>
      <stop offset=".89" stop-color="#85acfa"/>
      <stop offset="1" stop-color="#85b8fd"/>
    </radialGradient>
  </defs>
  <path class="cls-1" d="M1012.35,629.23c-9.54,14.75-24,29.2-32.38,29.2-4.91,0-6.94-3.47-6.94-9.54,0-14.74,17.64-53.2,28.62-77.19-11.28.29-35.85-.87-49.73-3.76.87-3.76,2.02-7.52,2.89-11.57h-22.55c-5.74,26.04-15.03,54.05-29.17,75.89-14.38,19.13-30.17,28.49-50.63,28.49-18.79,0-27.75-8.38-29.49-21.4,31.8,7.23,69.1-9.83,69.1-43.66,0-15.9-11.28-32.67-33.54-32.67-33.51,0-57.67,31.07-60.68,66.3-11.66,17.25-23.58,29.11-32.42,29.11-4.34,0-6.94-2.6-6.94-7.23,0-14.45,23.42-43.66,23.13-64.18,0-14.45-9.54-24-23.71-24-15.32,0-31.22,9.54-42.79,27.75,10.7-30.94,21.1-61.58,32.67-92.23h-25.15c-11.8,33.53-27.73,80.29-41.65,121.49-13.79,22.75-28.84,38.39-39.02,38.39-15.61,0-13.88-20.81,4.34-72.57h25.44l6.94-19.95h-25.15c4.62-12.43,9.83-26.02,15.9-41.34h-25.44l-15.32,41.34h-14.17l-6.65,19.95h13.88c-3.55,10.36-6.73,20.45-9.21,29.97-17.39,30.23-35.69,44.91-61.34,44.91-18.79,0-27.75-8.38-29.49-21.4,31.8,7.23,69.1-9.83,69.1-43.66,0-15.9-11.28-32.67-33.54-32.67-33.76,0-58.03,31.53-60.74,67.08-12.24,17.78-26,29.53-43.64,38.44l33.83-102.64h-24.87l-3.76,10.99c-5.49-7.52-16.48-13.88-31.22-13.88-23.41,0-43.61,18.91-51.84,43.43-7.2,2.91-15.31,2.99-22.76.51v-2.02c0-20.82-12.43-41.92-37.87-41.92-33.31,0-58.39,31.19-62.44,67.25-11.81,17.07-23.83,28.15-32.39,28.15-15.61,0-13.88-20.81,4.34-72.57h25.44l6.94-19.95h-25.15c4.62-12.43,9.83-26.02,15.9-41.34h-25.44l-15.32,41.34h-14.17l-6.65,19.95h13.88c-17.63,51.46-26.02,96.27,13.59,96.27,14.46,0,28.91-11.76,40.71-26.42,4.97,15.76,17.92,26.42,36.2,26.42,30.07,0,51.75-25.15,59.56-54.35,7.43,1.64,14.9,1.17,21.76-.61-.05,1.07-.07,2.14-.07,3.21,0,23.71,15.04,37.3,34.12,37.3,10.69,0,22.84-5.49,30.07-14.75l-8.38,24.87c-37.01,4.05-83.85,19.37-83.85,52.04,0,17.06,14.17,27.76,34.41,27.76,25.73,0,51.75-17.06,66.49-61.59l1.16-3.18c22.5-8.37,40.21-21.53,54.14-38.93,6.67,17.78,24.04,28.23,46.48,28.23,29.11,0,47.78-11.83,61.39-28.51.74,17.45,8.56,28.51,28.24,28.51,10.18,0,20.35-5.83,29.6-14.4-1.36,4.04-2.65,7.9-3.86,11.51h25.44c9.83-37.29,33.82-93.38,59.85-93.38,6.07,0,8.38,3.47,8.38,8.96,0,15.03-22.26,40.19-22.26,62.45,0,14.75,8.96,24.87,25.15,24.87s30.67-12.82,42.8-28.39c6.62,17.88,24.04,28.39,46.54,28.39s38.8-7.1,51.32-18.03c1.69-.98,3.49-2.45,5.35-4.52,14.45-16.77,29.78-40.47,41.34-70.83,8.1,2.02,17.35,2.89,23.42,3.18-10.69,23.42-20.81,44.81-20.81,63.32,0,14.45,8.67,26.89,25.44,26.89,23.42,0,44.53-23.42,53.49-39.03l-14.17-13.88ZM856.8,584.13c7.51,0,11.85,5.49,11.56,12.72-.29,18.5-24,29.49-44.53,25.73,3.47-20.82,16.77-38.45,32.96-38.45ZM555.53,584.13c7.51,0,11.85,5.49,11.56,12.72-.29,18.5-24,29.49-44.53,25.73,3.47-20.82,16.77-38.45,32.96-38.45ZM293,659.3c-9.83,0-16.48-7.52-16.48-21.68,0-24,16.19-52.91,34.11-52.91,10.98,0,16.19,9.54,16.19,21.68,0,24-16.19,52.91-33.83,52.91ZM380.61,736.78c-7.81,0-13.3-2.89-13.3-10.12,0-16.48,33.25-27.47,53.2-29.78-10.41,27.17-25.73,39.9-39.9,39.9ZM413.28,646.58c-10.41,0-17.06-6.94-17.06-19.66,0-20.53,11.56-42.5,33.54-42.5,8.96,0,17.93,4.92,21.97,10.12-8.39,24.29-19.08,52.04-38.45,52.04Z"/>
  <path class="cls-2" d="M625.67,334.83c-2.68,3.35-3.49,7.82-2.19,11.91,16.17,50.58,57.91,84.77,116.75,84.77,97.09,0,167.11-81.22,192.32-175.51,10.76-41.09,9.34-73.75,9.34-73.75,0-67.22-43.02-135.37-122.3-135.37-67.69,0-117,26.08-250.51,183.6-130.29,153.72-189.47,125.85-189.47,125.85-36.95-14.21-46.69-78.28-21.77-143.1,24.93-64.83,75.08-105.87,112.03-91.66,32.06,12.33,43.64,62.21,29.85,117.55-1.57,6.3,6.26,10.58,10.76,5.89l72.62-75.8c2.75-2.87,3.95-6.84,3.39-10.77-8.4-58.6-48.18-111.56-120.61-111.56-117.63,0-203.52,120.43-203.52,250.2,0,76.55,47.61,134.44,124.17,134.44,0,0,108.94,7.59,242.18-158.79,131.24-163.87,165.78-157.66,194.86-151.16,38.63,8.64,46.69,78.28,21.77,143.1-24.93,64.83-75.08,105.87-112.03,91.66-27.49-10.57-39.92-48.74-34.22-94.29.79-6.33-7.27-9.69-11.26-4.71l-62.15,77.51Z"/>
</svg>